# MagicaVoxel @ Ephtracy

# group
o 

# material
mtllib calot.mtl
usemtl palette

# normals
vn -1 0 0
vn 1 0 0
vn 0 0 1
vn 0 0 -1
vn 0 -1 0
vn 0 1 0

# texcoords
vt 0.0605469 0.5
vt 0.0644531 0.5
vt 0.904297 0.5

# verts
v -2.23517e-08 0 -0.3
v -2.23517e-08 0 -0.4
v -2.23517e-08 0.1 -0.2
v -2.23517e-08 0.1 -0.3
v -2.23517e-08 0.1 -0.4
v -2.23517e-08 0.3 -0.2
v -2.23517e-08 0.3 -0.3
v -2.23517e-08 0.4 -0.3
v -2.23517e-08 0.4 -0.4
v 0.1 0.2 -0.1
v 0.1 0.2 -0.2
v 0.1 0.3 -0.2
v 0.1 0.3 -0.3
v 0.1 0.4 -0.1
v 0.1 0.4 -0.2
v 0.1 0.4 -0.3
v 0.1 0.5 -0.2
v 0.1 0.5 -0.3
v 0.1 0.5 -0.4
v 0.1 0.6 -0.3
v 0.1 0.6 -0.4
v 0.2 0.4 -0.1
v 0.2 0.4 -0.2
v 0.2 0.4 -0.3
v 0.2 0.4 -0.4
v 0.2 0.5 -0.2
v 0.2 0.5 -0.3
v 0.2 0.5 -0.4
v 0.2 0.5 -0.5
v 0.2 0.6 -0.1
v 0.2 0.6 -0.2
v 0.2 0.6 -0.3
v 0.2 0.6 -0.4
v 0.2 0.7 -0.2
v 0.2 0.7 -0.3
v 0.2 0.7 -0.4
v 0.2 0.8 -0.3
v 0.2 0.8 -0.5
v 0.3 0.6 -0.1
v 0.3 0.6 -0.2
v 0.3 0.6 -0.3
v 0.3 0.6 -0.4
v 0.3 0.7 -0.1
v 0.3 0.7 -0.2
v 0.3 0.7 -0.3
v 0.3 0.7 -0.4
v 0.3 0.8 -0.1
v 0.3 0.8 -0.3
v 0.3 0.9 -0.4
v 0.3 0.9 -0.5
v 0.3 1 -0.4
v 0.3 1 -0.5
v 0.4 0.8 -0.3
v 0.4 0.8 -0.4
v 0.4 0.8 -0.5
v 0.4 0.9 -0.3
v 0.4 0.9 -0.4
v 0.4 0.9 -0.5
v 0.4 1 -0.3
v 0.4 1 -0.4
v 0.4 1 -0.5
v 0.4 1.1 -0.3
v 0.4 1.1 -0.5
v 0.5 0.9 -0.3
v 0.5 0.9 -0.4
v 0.5 1 -0.3
v 0.5 1 -0.4
v 0.6 0.8 -0.3
v 0.6 0.8 -0.4
v 0.6 0.9 -0.3
v 0.6 0.9 -0.4
v 0.1 0 -0.3
v 0.1 0 -0.4
v 0.1 0.1 -0.2
v 0.1 0.1 -0.3
v 0.1 0.1 -0.4
v 0.1 0.2 -0.2
v 0.1 0.2 -0.3
v 0.2 0.1 -0.3
v 0.2 0.1 -0.4
v 0.2 0.2 -0.1
v 0.2 0.2 -0.2
v 0.2 0.2 -0.3
v 0.2 0.2 -0.4
v 0.2 0.3 -0.1
v 0.2 0.3 -0.2
v 0.2 0.3 -0.3
v 0.2 0.3 -0.4
v 0.3 0.2 -0.2
v 0.3 0.2 -0.3
v 0.3 0.3 -0.1
v 0.3 0.3 -0.2
v 0.3 0.3 -0.3
v 0.3 0.3 -0.4
v 0.3 0.4 -0.1
v 0.3 0.4 -0.2
v 0.3 0.4 -0.3
v 0.3 0.4 -0.4
v 0.4 0.4 -0.1
v 0.4 0.4 -0.2
v 0.4 0.4 -0.3
v 0.4 0.4 -0.4
v 0.4 0.5 -0.1
v 0.4 0.5 -0.2
v 0.4 0.5 -0.3
v 0.4 0.5 -0.4
v 0.4 0.6 -0.1
v 0.4 0.6 -0.2
v 0.4 0.6 -0.3
v 0.4 0.6 -0.4
v 0.5 0.3 -0.2
v 0.5 0.3 -0.3
v 0.5 0.5 -0.2
v 0.5 0.5 -0.3
v 0.5 0.6 -0.1
v 0.5 0.6 -0.2
v 0.5 0.6 -0.3
v 0.5 0.7 -0.1
v 0.5 0.7 -0.2
v 0.5 0.7 -0.3
v 0.5 0.7 -0.4
v 0.5 0.8 -0.1
v 0.5 0.8 -0.3
v 0.5 0.8 -0.4
v 0.5 0.9 -0.3
v 0.5 0.9 -0.4
v 0.5 1 -0.3
v 0.5 1 -0.4
v 0.5 1.1 -0.3
v 0.5 1.1 -0.4
v 0.6 0.5 -0.2
v 0.6 0.5 -0.3
v 0.6 0.5 -0.4
v 0.6 0.5 -0.5
v 0.6 0.6 -0.2
v 0.6 0.6 -0.3
v 0.6 0.6 -0.4
v 0.6 0.7 -0.3
v 0.6 0.7 -0.4
v 0.6 0.7 -0.5
v 0.6 0.9 -0.3
v 0.6 0.9 -0.4
v 0.6 1 -0.3
v 0.6 1 -0.4
v 0.6 1 -0.5
v 0.6 1.1 -0.4
v 0.6 1.1 -0.5
v 0.7 0.7 -0.4
v 0.7 0.7 -0.5
v 0.7 0.8 -0.3
v 0.7 0.8 -0.4
v 0.7 0.8 -0.5
v 0.7 0.9 -0.3
v 0.7 0.9 -0.4
v 0.7 0.9 -0.5
v 0.7 1 -0.4
v 0.7 1 -0.5
v 0.8 0.8 -0.4
v 0.8 0.8 -0.5
v 0.8 0.9 -0.4
v 0.8 0.9 -0.5
v 0.1 0.2 -0.1
v 0.1 0.4 -0.1
v 0.2 0.2 -0.1
v 0.2 0.3 -0.1
v 0.2 0.4 -0.1
v 0.2 0.6 -0.1
v 0.3 0.3 -0.1
v 0.3 0.4 -0.1
v 0.3 0.5 -0.1
v 0.3 0.6 -0.1
v 0.3 0.7 -0.1
v 0.3 0.8 -0.1
v 0.4 0.4 -0.1
v 0.4 0.5 -0.1
v 0.4 0.6 -0.1
v 0.5 0.6 -0.1
v 0.5 0.7 -0.1
v 0.5 0.8 -0.1
v -2.23517e-08 0.1 -0.2
v -2.23517e-08 0.3 -0.2
v 0.1 0.1 -0.2
v 0.1 0.2 -0.2
v 0.1 0.3 -0.2
v 0.1 0.4 -0.2
v 0.1 0.5 -0.2
v 0.2 0.2 -0.2
v 0.2 0.3 -0.2
v 0.2 0.4 -0.2
v 0.2 0.5 -0.2
v 0.2 0.6 -0.2
v 0.2 0.7 -0.2
v 0.3 0.2 -0.2
v 0.3 0.3 -0.2
v 0.3 0.4 -0.2
v 0.3 0.6 -0.2
v 0.3 0.7 -0.2
v 0.4 0.4 -0.2
v 0.4 0.5 -0.2
v 0.4 0.6 -0.2
v 0.5 0.3 -0.2
v 0.5 0.5 -0.2
v 0.5 0.6 -0.2
v 0.6 0.5 -0.2
v 0.6 0.6 -0.2
v -2.23517e-08 0 -0.3
v -2.23517e-08 0.1 -0.3
v -2.23517e-08 0.3 -0.3
v -2.23517e-08 0.4 -0.3
v 0.1 0 -0.3
v 0.1 0.1 -0.3
v 0.1 0.2 -0.3
v 0.1 0.3 -0.3
v 0.1 0.4 -0.3
v 0.1 0.5 -0.3
v 0.1 0.6 -0.3
v 0.2 0.1 -0.3
v 0.2 0.2 -0.3
v 0.2 0.5 -0.3
v 0.2 0.6 -0.3
v 0.2 0.7 -0.3
v 0.2 0.8 -0.3
v 0.3 0.7 -0.3
v 0.3 0.8 -0.3
v 0.4 0.8 -0.3
v 0.4 0.9 -0.3
v 0.4 1 -0.3
v 0.4 1.1 -0.3
v 0.5 0.6 -0.3
v 0.5 0.7 -0.3
v 0.5 0.8 -0.3
v 0.5 0.9 -0.3
v 0.5 1 -0.3
v 0.5 1.1 -0.3
v 0.6 0.6 -0.3
v 0.6 0.7 -0.3
v 0.6 0.8 -0.3
v 0.6 0.9 -0.3
v 0.6 1 -0.3
v 0.7 0.8 -0.3
v 0.7 0.9 -0.3
v 0.2 0.6 -0.4
v 0.2 0.7 -0.4
v 0.3 0.6 -0.4
v 0.3 0.7 -0.4
v 0.3 0.9 -0.4
v 0.3 1 -0.4
v 0.4 0.5 -0.4
v 0.4 0.6 -0.4
v 0.4 0.9 -0.4
v 0.4 1 -0.4
v 0.5 0.7 -0.4
v 0.5 0.8 -0.4
v 0.5 0.9 -0.4
v 0.5 1 -0.4
v 0.5 1.1 -0.4
v 0.6 0.5 -0.4
v 0.6 0.6 -0.4
v 0.6 0.7 -0.4
v 0.6 0.8 -0.4
v 0.6 0.9 -0.4
v 0.6 1 -0.4
v 0.6 1.1 -0.4
v 0.7 0.7 -0.4
v 0.7 0.8 -0.4
v 0.7 0.9 -0.4
v 0.7 1 -0.4
v 0.8 0.8 -0.4
v 0.8 0.9 -0.4
v 0.1 0.4 -0.3
v 0.1 0.5 -0.3
v 0.2 0.2 -0.3
v 0.2 0.3 -0.3
v 0.2 0.4 -0.3
v 0.2 0.5 -0.3
v 0.2 0.6 -0.3
v 0.2 0.7 -0.3
v 0.3 0.2 -0.3
v 0.3 0.3 -0.3
v 0.3 0.4 -0.3
v 0.3 0.6 -0.3
v 0.3 0.7 -0.3
v 0.4 0.4 -0.3
v 0.4 0.5 -0.3
v 0.4 0.6 -0.3
v 0.5 0.3 -0.3
v 0.5 0.5 -0.3
v 0.6 0.5 -0.3
v 0.6 0.6 -0.3
v -2.23517e-08 0 -0.4
v -2.23517e-08 0.1 -0.4
v -2.23517e-08 0.4 -0.4
v 0.1 0 -0.4
v 0.1 0.1 -0.4
v 0.1 0.2 -0.4
v 0.1 0.5 -0.4
v 0.1 0.6 -0.4
v 0.2 0.1 -0.4
v 0.2 0.2 -0.4
v 0.2 0.3 -0.4
v 0.2 0.4 -0.4
v 0.2 0.5 -0.4
v 0.2 0.6 -0.4
v 0.3 0.3 -0.4
v 0.3 0.4 -0.4
v 0.4 0.4 -0.4
v 0.4 0.5 -0.4
v 0.2 0.5 -0.5
v 0.2 0.8 -0.5
v 0.3 0.9 -0.5
v 0.3 1 -0.5
v 0.4 0.8 -0.5
v 0.4 0.9 -0.5
v 0.4 1 -0.5
v 0.4 1.1 -0.5
v 0.5 0.7 -0.5
v 0.5 0.8 -0.5
v 0.5 0.9 -0.5
v 0.6 0.5 -0.5
v 0.6 0.7 -0.5
v 0.6 0.8 -0.5
v 0.6 1 -0.5
v 0.6 1.1 -0.5
v 0.7 0.7 -0.5
v 0.7 0.8 -0.5
v 0.7 0.9 -0.5
v 0.7 1 -0.5
v 0.8 0.8 -0.5
v 0.8 0.9 -0.5
v -2.23517e-08 0 -0.3
v 0.1 0 -0.3
v -2.23517e-08 0 -0.4
v 0.1 0 -0.4
v -2.23517e-08 0.1 -0.2
v 0.1 0.1 -0.2
v -2.23517e-08 0.1 -0.3
v 0.1 0.1 -0.3
v 0.2 0.1 -0.3
v 0.1 0.1 -0.4
v 0.2 0.1 -0.4
v 0.1 0.2 -0.1
v 0.2 0.2 -0.1
v 0.1 0.2 -0.2
v 0.2 0.2 -0.2
v 0.3 0.2 -0.2
v 0.1 0.2 -0.3
v 0.2 0.2 -0.3
v 0.3 0.2 -0.3
v 0.2 0.3 -0.1
v 0.3 0.3 -0.1
v 0.2 0.3 -0.2
v 0.3 0.3 -0.2
v 0.5 0.3 -0.2
v 0.2 0.3 -0.3
v 0.3 0.3 -0.3
v 0.5 0.3 -0.3
v 0.2 0.3 -0.4
v 0.3 0.3 -0.4
v 0.3 0.4 -0.1
v 0.4 0.4 -0.1
v 0.3 0.4 -0.2
v 0.4 0.4 -0.2
v 0.3 0.4 -0.3
v 0.4 0.4 -0.3
v 0.3 0.4 -0.4
v 0.4 0.4 -0.4
v 0.5 0.5 -0.2
v 0.6 0.5 -0.2
v 0.1 0.5 -0.3
v 0.2 0.5 -0.3
v 0.5 0.5 -0.3
v 0.6 0.5 -0.3
v 0.1 0.5 -0.4
v 0.2 0.5 -0.4
v 0.4 0.5 -0.4
v 0.6 0.5 -0.4
v 0.2 0.5 -0.5
v 0.6 0.5 -0.5
v 0.4 0.6 -0.1
v 0.5 0.6 -0.1
v 0.4 0.6 -0.2
v 0.5 0.6 -0.2
v 0.4 0.6 -0.3
v 0.6 0.6 -0.3
v 0.4 0.6 -0.4
v 0.6 0.6 -0.4
v 0.2 0.7 -0.3
v 0.3 0.7 -0.3
v 0.2 0.7 -0.4
v 0.3 0.7 -0.4
v 0.6 0.7 -0.4
v 0.7 0.7 -0.4
v 0.6 0.7 -0.5
v 0.7 0.7 -0.5
v 0.6 0.8 -0.3
v 0.7 0.8 -0.3
v 0.6 0.8 -0.4
v 0.7 0.8 -0.4
v 0.8 0.8 -0.4
v 0.7 0.8 -0.5
v 0.8 0.8 -0.5
v 0.5 0.9 -0.3
v 0.6 0.9 -0.3
v 0.3 0.9 -0.4
v 0.4 0.9 -0.4
v 0.5 0.9 -0.4
v 0.6 0.9 -0.4
v 0.3 0.9 -0.5
v 0.4 0.9 -0.5
v 0.4 1 -0.3
v 0.5 1 -0.3
v 0.4 1 -0.4
v 0.5 1 -0.4
v -2.23517e-08 0.3 -0.2
v 0.1 0.3 -0.2
v -2.23517e-08 0.3 -0.3
v 0.1 0.3 -0.3
v 0.1 0.4 -0.1
v 0.2 0.4 -0.1
v 0.1 0.4 -0.2
v 0.2 0.4 -0.2
v -2.23517e-08 0.4 -0.3
v 0.1 0.4 -0.3
v 0.2 0.4 -0.3
v -2.23517e-08 0.4 -0.4
v 0.2 0.4 -0.4
v 0.1 0.5 -0.2
v 0.2 0.5 -0.2
v 0.1 0.5 -0.3
v 0.2 0.5 -0.3
v 0.2 0.6 -0.1
v 0.3 0.6 -0.1
v 0.2 0.6 -0.2
v 0.3 0.6 -0.2
v 0.5 0.6 -0.2
v 0.6 0.6 -0.2
v 0.1 0.6 -0.3
v 0.2 0.6 -0.3
v 0.3 0.6 -0.3
v 0.5 0.6 -0.3
v 0.6 0.6 -0.3
v 0.1 0.6 -0.4
v 0.2 0.6 -0.4
v 0.3 0.6 -0.4
v 0.2 0.7 -0.2
v 0.3 0.7 -0.2
v 0.2 0.7 -0.3
v 0.3 0.7 -0.3
v 0.5 0.7 -0.3
v 0.6 0.7 -0.3
v 0.5 0.7 -0.4
v 0.6 0.7 -0.4
v 0.3 0.8 -0.1
v 0.5 0.8 -0.1
v 0.2 0.8 -0.3
v 0.3 0.8 -0.3
v 0.4 0.8 -0.3
v 0.5 0.8 -0.3
v 0.4 0.8 -0.4
v 0.2 0.8 -0.5
v 0.4 0.8 -0.5
v 0.4 0.9 -0.3
v 0.5 0.9 -0.3
v 0.6 0.9 -0.3
v 0.7 0.9 -0.3
v 0.4 0.9 -0.4
v 0.5 0.9 -0.4
v 0.6 0.9 -0.4
v 0.7 0.9 -0.4
v 0.8 0.9 -0.4
v 0.7 0.9 -0.5
v 0.8 0.9 -0.5
v 0.5 1 -0.3
v 0.6 1 -0.3
v 0.3 1 -0.4
v 0.4 1 -0.4
v 0.5 1 -0.4
v 0.6 1 -0.4
v 0.7 1 -0.4
v 0.3 1 -0.5
v 0.4 1 -0.5
v 0.6 1 -0.5
v 0.7 1 -0.5
v 0.4 1.1 -0.3
v 0.5 1.1 -0.3
v 0.5 1.1 -0.4
v 0.6 1.1 -0.4
v 0.4 1.1 -0.5
v 0.6 1.1 -0.5

# faces
f 4/2/1 2/2/1 1/2/1
f 5/2/1 2/2/1 4/2/1
f 6/1/1 4/1/1 3/1/1
f 6/1/1 5/1/1 4/1/1
f 7/1/1 5/1/1 6/1/1
f 8/1/1 5/1/1 7/1/1
f 9/1/1 5/1/1 8/1/1
f 12/1/1 11/1/1 10/1/1
f 14/1/1 12/1/1 10/1/1
f 14/1/1 13/1/1 12/1/1
f 15/1/1 13/1/1 14/1/1
f 16/1/1 13/1/1 15/1/1
f 17/1/1 16/1/1 15/1/1
f 18/1/1 16/1/1 17/1/1
f 20/1/1 19/1/1 18/1/1
f 21/1/1 19/1/1 20/1/1
f 26/1/1 23/1/1 22/1/1
f 27/1/1 25/1/1 24/1/1
f 28/1/1 25/1/1 27/1/1
f 30/1/1 26/1/1 22/1/1
f 30/1/1 27/1/1 26/1/1
f 31/1/1 27/1/1 30/1/1
f 32/1/1 27/1/1 31/1/1
f 33/1/1 29/1/1 28/1/1
f 34/2/1 32/2/1 31/2/1
f 35/2/1 32/2/1 34/2/1
f 36/1/1 29/1/1 33/1/1
f 37/1/1 36/1/1 35/1/1
f 38/1/1 29/1/1 36/1/1
f 38/1/1 36/1/1 37/1/1
f 43/2/1 40/2/1 39/2/1
f 44/2/1 40/2/1 43/2/1
f 45/1/1 42/1/1 41/1/1
f 46/1/1 42/1/1 45/1/1
f 47/1/1 44/1/1 43/1/1
f 47/1/1 45/1/1 44/1/1
f 48/1/1 45/1/1 47/1/1
f 51/3/1 50/3/1 49/3/1
f 52/3/1 50/3/1 51/3/1
f 56/2/1 54/2/1 53/2/1
f 57/1/1 55/1/1 54/1/1
f 57/2/1 54/2/1 56/2/1
f 58/1/1 55/1/1 57/1/1
f 62/3/1 60/3/1 59/3/1
f 62/3/1 61/3/1 60/3/1
f 63/3/1 61/3/1 62/3/1
f 66/3/1 65/3/1 64/3/1
f 67/3/1 65/3/1 66/3/1
f 70/3/1 69/3/1 68/3/1
f 71/3/1 69/3/1 70/3/1
f 72/2/2 73/2/2 75/2/2
f 75/2/2 73/2/2 76/2/2
f 74/1/2 75/1/2 77/1/2
f 77/1/2 75/1/2 78/1/2
f 79/2/2 80/2/2 83/2/2
f 83/2/2 80/2/2 84/2/2
f 81/1/2 82/1/2 85/1/2
f 85/1/2 82/1/2 86/1/2
f 83/1/2 84/1/2 87/1/2
f 87/1/2 84/1/2 88/1/2
f 89/2/2 90/2/2 92/2/2
f 92/2/2 90/2/2 93/2/2
f 91/2/2 92/2/2 95/2/2
f 95/2/2 92/2/2 96/2/2
f 93/1/2 94/1/2 97/1/2
f 97/1/2 94/1/2 98/1/2
f 99/2/2 100/2/2 103/2/2
f 103/2/2 100/2/2 104/2/2
f 101/1/2 102/1/2 105/1/2
f 105/1/2 102/1/2 106/1/2
f 103/1/2 104/1/2 107/1/2
f 107/1/2 104/1/2 108/1/2
f 105/1/2 106/1/2 109/1/2
f 109/1/2 106/1/2 110/1/2
f 111/2/2 112/2/2 113/2/2
f 113/2/2 112/2/2 114/2/2
f 115/2/2 116/2/2 118/2/2
f 116/1/2 117/1/2 119/1/2
f 118/2/2 116/2/2 119/2/2
f 119/1/2 117/1/2 120/1/2
f 119/1/2 120/1/2 122/1/2
f 120/1/2 121/1/2 122/1/2
f 118/1/2 119/1/2 122/1/2
f 122/1/2 121/1/2 123/1/2
f 123/1/2 121/1/2 124/1/2
f 123/2/2 124/2/2 125/2/2
f 125/2/2 124/2/2 126/2/2
f 127/3/2 128/3/2 129/3/2
f 129/3/2 128/3/2 130/3/2
f 131/1/2 132/1/2 135/1/2
f 135/1/2 132/1/2 136/1/2
f 133/1/2 134/1/2 137/1/2
f 136/1/2 137/1/2 138/1/2
f 137/1/2 134/1/2 139/1/2
f 138/1/2 137/1/2 139/1/2
f 139/1/2 134/1/2 140/1/2
f 141/3/2 142/3/2 143/3/2
f 143/3/2 142/3/2 144/3/2
f 144/3/2 145/3/2 146/3/2
f 146/3/2 145/3/2 147/3/2
f 148/3/2 149/3/2 151/3/2
f 151/3/2 149/3/2 152/3/2
f 150/3/2 151/3/2 153/3/2
f 153/3/2 151/3/2 154/3/2
f 154/3/2 155/3/2 156/3/2
f 156/3/2 155/3/2 157/3/2
f 158/3/2 159/3/2 160/3/2
f 160/3/2 159/3/2 161/3/2
f 164/1/3 163/1/3 162/1/3
f 165/1/3 163/1/3 164/1/3
f 166/1/3 163/1/3 165/1/3
f 168/2/3 166/2/3 165/2/3
f 169/1/3 167/1/3 166/1/3
f 169/2/3 166/2/3 168/2/3
f 170/1/3 167/1/3 169/1/3
f 171/1/3 167/1/3 170/1/3
f 174/2/3 170/2/3 169/2/3
f 175/1/3 171/1/3 170/1/3
f 175/2/3 170/2/3 174/2/3
f 176/2/3 172/2/3 171/2/3
f 176/1/3 171/1/3 175/1/3
f 177/2/3 172/2/3 176/2/3
f 178/1/3 173/1/3 172/1/3
f 178/2/3 172/2/3 177/2/3
f 179/1/3 173/1/3 178/1/3
f 182/1/3 181/1/3 180/1/3
f 183/1/3 181/1/3 182/1/3
f 184/1/3 181/1/3 183/1/3
f 189/1/3 186/1/3 185/1/3
f 190/1/3 186/1/3 189/1/3
f 193/2/3 188/2/3 187/2/3
f 194/2/3 188/2/3 193/2/3
f 196/2/3 192/2/3 191/2/3
f 197/2/3 192/2/3 196/2/3
f 198/2/3 195/2/3 194/2/3
f 201/2/3 198/2/3 194/2/3
f 201/2/3 199/2/3 198/2/3
f 202/1/3 200/1/3 199/1/3
f 202/2/3 199/2/3 201/2/3
f 203/1/3 200/1/3 202/1/3
f 204/1/3 203/1/3 202/1/3
f 205/1/3 203/1/3 204/1/3
f 210/2/3 207/2/3 206/2/3
f 211/2/3 207/2/3 210/2/3
f 213/1/3 209/1/3 208/1/3
f 214/1/3 209/1/3 213/1/3
f 217/2/3 212/2/3 211/2/3
f 218/2/3 212/2/3 217/2/3
f 219/1/3 216/1/3 215/1/3
f 220/1/3 216/1/3 219/1/3
f 223/1/3 222/1/3 221/1/3
f 224/1/3 222/1/3 223/1/3
f 231/2/3 226/2/3 225/2/3
f 232/2/3 226/2/3 231/2/3
f 233/3/3 228/3/3 227/3/3
f 234/3/3 228/3/3 233/3/3
f 235/1/3 230/1/3 229/1/3
f 236/1/3 230/1/3 235/1/3
f 238/3/3 233/3/3 232/3/3
f 239/3/3 233/3/3 238/3/3
f 240/3/3 238/3/3 237/3/3
f 241/3/3 238/3/3 240/3/3
f 244/1/3 243/1/3 242/1/3
f 245/1/3 243/1/3 244/1/3
f 250/3/3 247/3/3 246/3/3
f 251/3/3 247/3/3 250/3/3
f 254/3/3 251/3/3 250/3/3
f 255/3/3 251/3/3 254/3/3
f 257/1/3 249/1/3 248/1/3
f 258/1/3 249/1/3 257/1/3
f 259/2/3 253/2/3 252/2/3
f 260/3/3 254/3/3 253/3/3
f 260/2/3 253/2/3 259/2/3
f 261/3/3 254/3/3 260/3/3
f 262/3/3 256/3/3 255/3/3
f 263/3/3 256/3/3 262/3/3
f 264/3/3 260/3/3 259/3/3
f 265/3/3 260/3/3 264/3/3
f 266/3/3 262/3/3 261/3/3
f 267/3/3 262/3/3 266/3/3
f 268/3/3 266/3/3 265/3/3
f 269/3/3 266/3/3 268/3/3
f 270/1/4 271/1/4 274/1/4
f 274/1/4 271/1/4 275/1/4
f 272/2/4 273/2/4 278/2/4
f 278/2/4 273/2/4 279/2/4
f 276/2/4 277/2/4 281/2/4
f 281/2/4 277/2/4 282/2/4
f 279/2/4 280/2/4 283/2/4
f 279/2/4 283/2/4 286/2/4
f 283/2/4 284/2/4 286/2/4
f 284/1/4 285/1/4 287/1/4
f 286/2/4 284/2/4 287/2/4
f 287/1/4 285/1/4 288/1/4
f 288/1/4 285/1/4 289/1/4
f 290/2/4 291/2/4 293/2/4
f 291/1/4 292/1/4 294/1/4
f 293/2/4 291/2/4 294/2/4
f 294/1/4 292/1/4 295/1/4
f 294/2/4 295/2/4 298/2/4
f 295/1/4 292/1/4 299/1/4
f 298/2/4 295/2/4 299/2/4
f 299/1/4 292/1/4 300/1/4
f 300/1/4 292/1/4 301/1/4
f 296/1/4 297/1/4 302/1/4
f 302/1/4 297/1/4 303/1/4
f 300/1/4 301/1/4 304/1/4
f 301/1/4 302/1/4 304/1/4
f 304/1/4 302/1/4 305/1/4
f 305/1/4 302/1/4 306/1/4
f 306/1/4 302/1/4 307/1/4
f 308/1/4 309/1/4 312/1/4
f 310/3/4 311/3/4 313/3/4
f 313/3/4 311/3/4 314/3/4
f 308/1/4 312/1/4 316/1/4
f 312/1/4 313/1/4 316/1/4
f 316/1/4 313/1/4 317/1/4
f 314/3/4 315/3/4 318/3/4
f 317/1/4 313/1/4 318/1/4
f 313/3/4 314/3/4 318/3/4
f 308/1/4 316/1/4 319/1/4
f 316/2/4 317/2/4 320/2/4
f 319/1/4 316/1/4 320/1/4
f 317/3/4 318/3/4 321/3/4
f 320/2/4 317/2/4 321/2/4
f 318/3/4 315/3/4 322/3/4
f 321/3/4 318/3/4 322/3/4
f 322/3/4 315/3/4 323/3/4
f 320/3/4 321/3/4 324/3/4
f 321/3/4 322/3/4 324/3/4
f 324/3/4 322/3/4 325/3/4
f 325/3/4 322/3/4 326/3/4
f 326/3/4 322/3/4 327/3/4
f 325/3/4 326/3/4 328/3/4
f 328/3/4 326/3/4 329/3/4
f 332/2/5 331/2/5 330/2/5
f 333/2/5 331/2/5 332/2/5
f 336/1/5 335/1/5 334/1/5
f 337/1/5 335/1/5 336/1/5
f 339/2/5 338/2/5 337/2/5
f 340/2/5 338/2/5 339/2/5
f 343/1/5 342/1/5 341/1/5
f 344/1/5 342/1/5 343/1/5
f 346/1/5 344/1/5 343/1/5
f 347/2/5 345/2/5 344/2/5
f 347/1/5 344/1/5 346/1/5
f 348/2/5 345/2/5 347/2/5
f 351/2/5 350/2/5 349/2/5
f 352/2/5 350/2/5 351/2/5
f 355/2/5 353/2/5 352/2/5
f 356/2/5 353/2/5 355/2/5
f 357/1/5 355/1/5 354/1/5
f 358/1/5 355/1/5 357/1/5
f 361/2/5 360/2/5 359/2/5
f 362/2/5 360/2/5 361/2/5
f 365/1/5 364/1/5 363/1/5
f 366/1/5 364/1/5 365/1/5
f 371/1/5 368/1/5 367/1/5
f 372/1/5 368/1/5 371/1/5
f 373/1/5 370/1/5 369/1/5
f 374/1/5 370/1/5 373/1/5
f 377/1/5 376/1/5 375/1/5
f 377/1/5 375/1/5 374/1/5
f 378/1/5 376/1/5 377/1/5
f 381/2/5 380/2/5 379/2/5
f 382/2/5 380/2/5 381/2/5
f 385/1/5 384/1/5 383/1/5
f 386/1/5 384/1/5 385/1/5
f 389/1/5 388/1/5 387/1/5
f 390/1/5 388/1/5 389/1/5
f 393/3/5 392/3/5 391/3/5
f 394/3/5 392/3/5 393/3/5
f 397/3/5 396/3/5 395/3/5
f 398/3/5 396/3/5 397/3/5
f 400/3/5 399/3/5 398/3/5
f 401/3/5 399/3/5 400/3/5
f 406/3/5 403/3/5 402/3/5
f 407/3/5 403/3/5 406/3/5
f 408/3/5 405/3/5 404/3/5
f 409/3/5 405/3/5 408/3/5
f 412/3/5 411/3/5 410/3/5
f 413/3/5 411/3/5 412/3/5
f 414/1/6 415/1/6 416/1/6
f 416/1/6 415/1/6 417/1/6
f 418/1/6 419/1/6 420/1/6
f 420/1/6 419/1/6 421/1/6
f 422/1/6 423/1/6 425/1/6
f 423/1/6 424/1/6 425/1/6
f 425/1/6 424/1/6 426/1/6
f 427/1/6 428/1/6 429/1/6
f 429/1/6 428/1/6 430/1/6
f 431/1/6 432/1/6 433/1/6
f 433/1/6 432/1/6 434/1/6
f 435/1/6 436/1/6 440/1/6
f 440/1/6 436/1/6 441/1/6
f 438/1/6 439/1/6 442/1/6
f 437/1/6 438/1/6 442/1/6
f 442/1/6 439/1/6 443/1/6
f 443/1/6 439/1/6 444/1/6
f 445/2/6 446/2/6 447/2/6
f 447/2/6 446/2/6 448/2/6
f 449/1/6 450/1/6 451/1/6
f 451/1/6 450/1/6 452/1/6
f 453/1/6 454/1/6 456/1/6
f 456/1/6 454/1/6 457/1/6
f 457/1/6 454/1/6 458/1/6
f 455/1/6 456/1/6 459/1/6
f 456/1/6 457/1/6 459/1/6
f 455/1/6 459/1/6 460/1/6
f 460/1/6 459/1/6 461/1/6
f 462/2/6 463/2/6 466/2/6
f 466/2/6 463/2/6 467/2/6
f 464/3/6 465/3/6 468/3/6
f 468/3/6 465/3/6 469/3/6
f 469/3/6 470/3/6 471/3/6
f 471/3/6 470/3/6 472/3/6
f 473/3/6 474/3/6 477/3/6
f 477/3/6 474/3/6 478/3/6
f 475/3/6 476/3/6 480/3/6
f 480/3/6 476/3/6 481/3/6
f 478/3/6 479/3/6 482/3/6
f 482/3/6 479/3/6 483/3/6
f 484/3/6 485/3/6 486/3/6
f 484/3/6 486/3/6 488/3/6
f 486/3/6 487/3/6 488/3/6
f 488/3/6 487/3/6 489/3/6
