# MagicaVoxel @ Ephtracy

# group
o 

# material
mtllib chair.mtl
usemtl palette

# normals
vn -1 0 0
vn 1 0 0
vn 0 0 1
vn 0 0 -1
vn 0 -1 0
vn 0 1 0

# texcoords
vt 0.345703 0.5
vt 0.865234 0.5

# verts
v -0.4 0 1.2
v -0.4 0 1
v -0.4 0 0.7
v -0.4 0 0.5
v -0.4 0.5 1.2
v -0.4 0.5 1
v -0.4 0.5 0.7
v -0.4 0.5 0.5
v -0.4 0.6 1.1
v -0.4 0.6 0.5
v -0.4 1.1 1.2
v -0.4 1.1 1.1
v -0.3 1.1 1.2
v -0.3 1.1 1.1
v -0.3 1.2 1.2
v -0.3 1.2 1.1
v -0.2 1.2 1.2
v -0.2 1.2 1.1
v -0.2 1.3 1.2
v -0.2 1.3 1.1
v -0.1 1 1.2
v -0.1 1 1.1
v -0.1 1.1 1.2
v -0.1 1.1 1.1
v -0.1 1.3 1.2
v -0.1 1.3 1.1
v -0.1 1.4 1.2
v -0.1 1.4 1.1
v 0.1 1.1 1.2
v 0.1 1.1 1.1
v 0.1 1.2 1.2
v 0.1 1.2 1.1
v 0.2 0 1.2
v 0.2 0 1
v 0.2 0 0.7
v 0.2 0 0.5
v 0.2 0.5 1.2
v 0.2 0.5 1
v 0.2 0.5 0.7
v 0.2 0.5 0.5
v 0.2 1 1.2
v 0.2 1 1.1
v 0.2 1.1 1.2
v 0.2 1.1 1.1
v -0.2 0 1.2
v -0.2 0 1
v -0.2 0 0.7
v -0.2 0 0.5
v -0.2 0.5 1.2
v -0.2 0.5 1
v -0.2 0.5 0.7
v -0.2 0.5 0.5
v -0.2 1 1.2
v -0.2 1 1.1
v -0.2 1.1 1.2
v -0.2 1.1 1.1
v -0.1 1.1 1.2
v -0.1 1.1 1.1
v -0.1 1.2 1.2
v -0.1 1.2 1.1
v 0.1 1 1.2
v 0.1 1 1.1
v 0.1 1.1 1.2
v 0.1 1.1 1.1
v 0.1 1.3 1.2
v 0.1 1.3 1.1
v 0.1 1.4 1.2
v 0.1 1.4 1.1
v 0.2 1.2 1.2
v 0.2 1.2 1.1
v 0.2 1.3 1.2
v 0.2 1.3 1.1
v 0.3 1.1 1.2
v 0.3 1.1 1.1
v 0.3 1.2 1.2
v 0.3 1.2 1.1
v 0.4 0 1.2
v 0.4 0 1
v 0.4 0 0.7
v 0.4 0 0.5
v 0.4 0.5 1.2
v 0.4 0.5 1
v 0.4 0.5 0.7
v 0.4 0.5 0.5
v 0.4 0.6 1.1
v 0.4 0.6 0.5
v 0.4 1.1 1.2
v 0.4 1.1 1.1
v -0.4 0 1.2
v -0.4 0.5 1.2
v -0.4 1.1 1.2
v -0.3 1.1 1.2
v -0.3 1.2 1.2
v -0.2 0 1.2
v -0.2 0.5 1.2
v -0.2 1 1.2
v -0.2 1.1 1.2
v -0.2 1.2 1.2
v -0.2 1.3 1.2
v -0.1 1 1.2
v -0.1 1.1 1.2
v -0.1 1.2 1.2
v -0.1 1.3 1.2
v -0.1 1.4 1.2
v 0.1 1 1.2
v 0.1 1.1 1.2
v 0.1 1.2 1.2
v 0.1 1.3 1.2
v 0.1 1.4 1.2
v 0.2 0 1.2
v 0.2 0.5 1.2
v 0.2 1 1.2
v 0.2 1.1 1.2
v 0.2 1.2 1.2
v 0.2 1.3 1.2
v 0.3 1.1 1.2
v 0.3 1.2 1.2
v 0.4 0 1.2
v 0.4 0.5 1.2
v 0.4 1.1 1.2
v -0.4 0 0.7
v -0.4 0.5 0.7
v -0.2 0 0.7
v -0.2 0.5 0.7
v 0.2 0 0.7
v 0.2 0.5 0.7
v 0.4 0 0.7
v 0.4 0.5 0.7
v -0.4 0.6 1.1
v -0.4 1.1 1.1
v -0.3 1.1 1.1
v -0.3 1.2 1.1
v -0.2 1 1.1
v -0.2 1.1 1.1
v -0.2 1.2 1.1
v -0.2 1.3 1.1
v -0.1 1 1.1
v -0.1 1.1 1.1
v -0.1 1.2 1.1
v -0.1 1.3 1.1
v -0.1 1.4 1.1
v 0.1 1 1.1
v 0.1 1.1 1.1
v 0.1 1.2 1.1
v 0.1 1.3 1.1
v 0.1 1.4 1.1
v 0.2 1 1.1
v 0.2 1.1 1.1
v 0.2 1.2 1.1
v 0.2 1.3 1.1
v 0.3 1.1 1.1
v 0.3 1.2 1.1
v 0.4 0.6 1.1
v 0.4 1.1 1.1
v -0.4 0 1
v -0.4 0.5 1
v -0.2 0 1
v -0.2 0.5 1
v 0.2 0 1
v 0.2 0.5 1
v 0.4 0 1
v 0.4 0.5 1
v -0.4 0 0.5
v -0.4 0.5 0.5
v -0.4 0.6 0.5
v -0.2 0 0.5
v -0.2 0.5 0.5
v 0.2 0 0.5
v 0.2 0.5 0.5
v 0.4 0 0.5
v 0.4 0.5 0.5
v 0.4 0.6 0.5
v -0.4 0 1.2
v -0.2 0 1.2
v 0.2 0 1.2
v 0.4 0 1.2
v -0.4 0 1
v -0.2 0 1
v 0.2 0 1
v 0.4 0 1
v -0.4 0 0.7
v -0.2 0 0.7
v 0.2 0 0.7
v 0.4 0 0.7
v -0.4 0 0.5
v -0.2 0 0.5
v 0.2 0 0.5
v 0.4 0 0.5
v -0.2 0.5 1.2
v 0.2 0.5 1.2
v -0.4 0.5 1
v -0.2 0.5 1
v 0.2 0.5 1
v 0.4 0.5 1
v -0.4 0.5 0.7
v -0.2 0.5 0.7
v 0.2 0.5 0.7
v 0.4 0.5 0.7
v -0.2 0.5 0.5
v 0.2 0.5 0.5
v -0.2 1.1 1.2
v -0.1 1.1 1.2
v 0.1 1.1 1.2
v 0.2 1.1 1.2
v -0.2 1.1 1.1
v -0.1 1.1 1.1
v 0.1 1.1 1.1
v 0.2 1.1 1.1
v -0.1 1.2 1.2
v 0.1 1.2 1.2
v -0.1 1.2 1.1
v 0.1 1.2 1.1
v -0.4 0.6 1.1
v 0.4 0.6 1.1
v -0.4 0.6 0.5
v 0.4 0.6 0.5
v -0.2 1 1.2
v -0.1 1 1.2
v 0.1 1 1.2
v 0.2 1 1.2
v -0.2 1 1.1
v -0.1 1 1.1
v 0.1 1 1.1
v 0.2 1 1.1
v -0.4 1.1 1.2
v -0.3 1.1 1.2
v -0.1 1.1 1.2
v 0.1 1.1 1.2
v 0.3 1.1 1.2
v 0.4 1.1 1.2
v -0.4 1.1 1.1
v -0.3 1.1 1.1
v -0.1 1.1 1.1
v 0.1 1.1 1.1
v 0.3 1.1 1.1
v 0.4 1.1 1.1
v -0.3 1.2 1.2
v -0.2 1.2 1.2
v 0.2 1.2 1.2
v 0.3 1.2 1.2
v -0.3 1.2 1.1
v -0.2 1.2 1.1
v 0.2 1.2 1.1
v 0.3 1.2 1.1
v -0.2 1.3 1.2
v -0.1 1.3 1.2
v 0.1 1.3 1.2
v 0.2 1.3 1.2
v -0.2 1.3 1.1
v -0.1 1.3 1.1
v 0.1 1.3 1.1
v 0.2 1.3 1.1
v -0.1 1.4 1.2
v 0.1 1.4 1.2
v -0.1 1.4 1.1
v 0.1 1.4 1.1

# faces
f 5/1/1 2/1/1 1/1/1
f 6/1/1 2/1/1 5/1/1
f 7/1/1 4/1/1 3/1/1
f 8/1/1 4/1/1 7/1/1
f 9/2/1 6/2/1 5/2/1
f 9/2/1 7/2/1 6/2/1
f 9/2/1 8/2/1 7/2/1
f 10/2/1 8/2/1 9/2/1
f 11/2/1 9/2/1 5/2/1
f 12/2/1 9/2/1 11/2/1
f 15/2/1 14/2/1 13/2/1
f 16/2/1 14/2/1 15/2/1
f 19/2/1 18/2/1 17/2/1
f 20/2/1 18/2/1 19/2/1
f 23/2/1 22/2/1 21/2/1
f 24/2/1 22/2/1 23/2/1
f 27/2/1 26/2/1 25/2/1
f 28/2/1 26/2/1 27/2/1
f 31/2/1 30/2/1 29/2/1
f 32/2/1 30/2/1 31/2/1
f 37/1/1 34/1/1 33/1/1
f 38/1/1 34/1/1 37/1/1
f 39/1/1 36/1/1 35/1/1
f 40/1/1 36/1/1 39/1/1
f 43/2/1 42/2/1 41/2/1
f 44/2/1 42/2/1 43/2/1
f 45/1/2 46/1/2 49/1/2
f 49/1/2 46/1/2 50/1/2
f 47/1/2 48/1/2 51/1/2
f 51/1/2 48/1/2 52/1/2
f 53/2/2 54/2/2 55/2/2
f 55/2/2 54/2/2 56/2/2
f 57/2/2 58/2/2 59/2/2
f 59/2/2 58/2/2 60/2/2
f 61/2/2 62/2/2 63/2/2
f 63/2/2 62/2/2 64/2/2
f 65/2/2 66/2/2 67/2/2
f 67/2/2 66/2/2 68/2/2
f 69/2/2 70/2/2 71/2/2
f 71/2/2 70/2/2 72/2/2
f 73/2/2 74/2/2 75/2/2
f 75/2/2 74/2/2 76/2/2
f 77/1/2 78/1/2 81/1/2
f 81/1/2 78/1/2 82/1/2
f 79/1/2 80/1/2 83/1/2
f 83/1/2 80/1/2 84/1/2
f 81/2/2 82/2/2 85/2/2
f 82/2/2 83/2/2 85/2/2
f 83/2/2 84/2/2 85/2/2
f 85/2/2 84/2/2 86/2/2
f 81/2/2 85/2/2 87/2/2
f 87/2/2 85/2/2 88/2/2
f 92/2/3 91/2/3 90/2/3
f 94/1/3 90/1/3 89/1/3
f 95/2/3 93/2/3 92/2/3
f 95/1/3 90/1/3 94/1/3
f 95/2/3 92/2/3 90/2/3
f 96/2/3 93/2/3 95/2/3
f 97/2/3 93/2/3 96/2/3
f 98/2/3 93/2/3 97/2/3
f 100/2/3 96/2/3 95/2/3
f 101/2/3 99/2/3 98/2/3
f 101/2/3 98/2/3 97/2/3
f 102/2/3 99/2/3 101/2/3
f 103/2/3 99/2/3 102/2/3
f 105/2/3 100/2/3 95/2/3
f 105/2/3 101/2/3 100/2/3
f 106/2/3 101/2/3 105/2/3
f 107/2/3 104/2/3 103/2/3
f 107/2/3 103/2/3 102/2/3
f 108/2/3 104/2/3 107/2/3
f 109/2/3 104/2/3 108/2/3
f 111/2/3 105/2/3 95/2/3
f 112/2/3 105/2/3 111/2/3
f 113/2/3 108/2/3 107/2/3
f 113/2/3 107/2/3 106/2/3
f 114/2/3 108/2/3 113/2/3
f 115/2/3 108/2/3 114/2/3
f 116/2/3 112/2/3 111/2/3
f 116/2/3 113/2/3 112/2/3
f 116/2/3 114/2/3 113/2/3
f 117/2/3 114/2/3 116/2/3
f 118/1/3 111/1/3 110/1/3
f 119/2/3 116/2/3 111/2/3
f 119/1/3 111/1/3 118/1/3
f 120/2/3 116/2/3 119/2/3
f 123/1/3 122/1/3 121/1/3
f 124/1/3 122/1/3 123/1/3
f 127/1/3 126/1/3 125/1/3
f 128/1/3 126/1/3 127/1/3
f 129/2/4 130/2/4 131/2/4
f 129/2/4 131/2/4 133/2/4
f 131/2/4 132/2/4 133/2/4
f 133/2/4 132/2/4 134/2/4
f 134/2/4 132/2/4 135/2/4
f 129/2/4 133/2/4 137/2/4
f 135/2/4 136/2/4 138/2/4
f 134/2/4 135/2/4 138/2/4
f 138/2/4 136/2/4 139/2/4
f 139/2/4 136/2/4 140/2/4
f 129/2/4 137/2/4 142/2/4
f 137/2/4 138/2/4 142/2/4
f 142/2/4 138/2/4 143/2/4
f 140/2/4 141/2/4 144/2/4
f 139/2/4 140/2/4 144/2/4
f 144/2/4 141/2/4 145/2/4
f 145/2/4 141/2/4 146/2/4
f 129/2/4 142/2/4 147/2/4
f 144/2/4 145/2/4 148/2/4
f 143/2/4 144/2/4 148/2/4
f 148/2/4 145/2/4 149/2/4
f 149/2/4 145/2/4 150/2/4
f 147/2/4 148/2/4 151/2/4
f 148/2/4 149/2/4 151/2/4
f 151/2/4 149/2/4 152/2/4
f 129/2/4 147/2/4 153/2/4
f 147/2/4 151/2/4 153/2/4
f 153/2/4 151/2/4 154/2/4
f 155/1/4 156/1/4 157/1/4
f 157/1/4 156/1/4 158/1/4
f 159/1/4 160/1/4 161/1/4
f 161/1/4 160/1/4 162/1/4
f 163/1/4 164/1/4 166/1/4
f 164/2/4 165/2/4 167/2/4
f 166/1/4 164/1/4 167/1/4
f 167/2/4 165/2/4 169/2/4
f 168/1/4 169/1/4 170/1/4
f 169/2/4 165/2/4 171/2/4
f 170/1/4 169/1/4 171/1/4
f 171/2/4 165/2/4 172/2/4
f 177/1/5 174/1/5 173/1/5
f 178/1/5 174/1/5 177/1/5
f 179/1/5 176/1/5 175/1/5
f 180/1/5 176/1/5 179/1/5
f 185/1/5 182/1/5 181/1/5
f 186/1/5 182/1/5 185/1/5
f 187/1/5 184/1/5 183/1/5
f 188/1/5 184/1/5 187/1/5
f 192/2/5 190/2/5 189/2/5
f 193/2/5 190/2/5 192/2/5
f 195/2/5 192/2/5 191/2/5
f 195/2/5 194/2/5 193/2/5
f 195/2/5 193/2/5 192/2/5
f 196/2/5 194/2/5 195/2/5
f 197/2/5 194/2/5 196/2/5
f 198/2/5 194/2/5 197/2/5
f 199/2/5 197/2/5 196/2/5
f 200/2/5 197/2/5 199/2/5
f 205/2/5 202/2/5 201/2/5
f 206/2/5 202/2/5 205/2/5
f 207/2/5 204/2/5 203/2/5
f 208/2/5 204/2/5 207/2/5
f 211/2/5 210/2/5 209/2/5
f 212/2/5 210/2/5 211/2/5
f 213/2/6 214/2/6 215/2/6
f 215/2/6 214/2/6 216/2/6
f 217/2/6 218/2/6 221/2/6
f 221/2/6 218/2/6 222/2/6
f 219/2/6 220/2/6 223/2/6
f 223/2/6 220/2/6 224/2/6
f 225/2/6 226/2/6 231/2/6
f 231/2/6 226/2/6 232/2/6
f 227/2/6 228/2/6 233/2/6
f 233/2/6 228/2/6 234/2/6
f 229/2/6 230/2/6 235/2/6
f 235/2/6 230/2/6 236/2/6
f 237/2/6 238/2/6 241/2/6
f 241/2/6 238/2/6 242/2/6
f 239/2/6 240/2/6 243/2/6
f 243/2/6 240/2/6 244/2/6
f 245/2/6 246/2/6 249/2/6
f 249/2/6 246/2/6 250/2/6
f 247/2/6 248/2/6 251/2/6
f 251/2/6 248/2/6 252/2/6
f 253/2/6 254/2/6 255/2/6
f 255/2/6 254/2/6 256/2/6
