# MagicaVoxel @ Ephtracy

# group
o 

# material
mtllib kabu_2.mtl
usemtl palette

# normals
vn -1 0 0
vn 1 0 0
vn 0 0 1
vn 0 0 -1
vn 0 -1 0
vn 0 1 0

# texcoords
vt 0.00195312 0.5
vt 0.146484 0.5
vt 0.583984 0.5

# verts
v -0.3 0 0.3
v -0.3 0 -2.98023e-08
v -0.3 0.1 0.3
v -0.3 0.1 -2.98023e-08
v -0.3 0.5 0.3
v -0.3 0.5 0.2
v -0.3 0.5 0.1
v -0.3 0.5 -2.98023e-08
v -0.3 0.7 0.3
v -0.3 0.7 0.2
v -0.3 0.7 0.1
v -0.3 0.7 -2.98023e-08
v -0.2 0 -2.98023e-08
v -0.2 0 -0.1
v -0.2 0.1 0.3
v -0.2 0.1 0.2
v -0.2 0.1 0.1
v -0.2 0.1 -2.98023e-08
v -0.2 0.1 -0.1
v -0.2 0.5 0.3
v -0.2 0.5 0.2
v -0.2 0.5 0.1
v -0.2 0.5 -2.98023e-08
v -0.1 0.1 0.2
v -0.1 0.1 0.1
v -0.1 0.6 0.2
v -0.1 0.6 0.1
v 2.98023e-08 0.1 0.3
v 2.98023e-08 0.1 0.2
v 2.98023e-08 0.1 0.1
v 2.98023e-08 0.1 -2.98023e-08
v 2.98023e-08 0.6 0.2
v 2.98023e-08 0.6 0.1
v 2.98023e-08 0.7 0.3
v 2.98023e-08 0.7 0.2
v 2.98023e-08 0.7 0.1
v 2.98023e-08 0.7 -2.98023e-08
v -0.1 0.1 0.3
v -0.1 0.1 0.2
v -0.1 0.1 0.1
v -0.1 0.1 -2.98023e-08
v -0.1 0.6 0.2
v -0.1 0.6 0.1
v -0.1 0.7 0.3
v -0.1 0.7 0.2
v -0.1 0.7 0.1
v -0.1 0.7 -2.98023e-08
v 2.98023e-08 0.1 0.2
v 2.98023e-08 0.1 0.1
v 2.98023e-08 0.6 0.2
v 2.98023e-08 0.6 0.1
v 0.1 0 -2.98023e-08
v 0.1 0 -0.1
v 0.1 0.1 0.3
v 0.1 0.1 0.2
v 0.1 0.1 0.1
v 0.1 0.1 -2.98023e-08
v 0.1 0.1 -0.1
v 0.1 0.5 0.3
v 0.1 0.5 0.2
v 0.1 0.5 0.1
v 0.1 0.5 -2.98023e-08
v 0.2 0 0.3
v 0.2 0 -2.98023e-08
v 0.2 0.1 0.3
v 0.2 0.1 -2.98023e-08
v 0.2 0.5 0.3
v 0.2 0.5 0.2
v 0.2 0.5 0.1
v 0.2 0.5 -2.98023e-08
v 0.2 0.7 0.3
v 0.2 0.7 0.2
v 0.2 0.7 0.1
v 0.2 0.7 -2.98023e-08
v -0.3 0 0.3
v -0.3 0.1 0.3
v -0.3 0.5 0.3
v -0.3 0.7 0.3
v -0.2 0.1 0.3
v -0.2 0.5 0.3
v -0.1 0.1 0.3
v -0.1 0.7 0.3
v 2.98023e-08 0.1 0.3
v 2.98023e-08 0.7 0.3
v 0.1 0.1 0.3
v 0.1 0.5 0.3
v 0.2 0 0.3
v 0.2 0.1 0.3
v 0.2 0.5 0.3
v 0.2 0.7 0.3
v -0.1 0.1 0.2
v -0.1 0.6 0.2
v 2.98023e-08 0.1 0.2
v 2.98023e-08 0.6 0.2
v -0.3 0.5 0.1
v -0.3 0.7 0.1
v -0.2 0.1 0.1
v -0.2 0.5 0.1
v -0.1 0.1 0.1
v -0.1 0.6 0.1
v -0.1 0.7 0.1
v 2.98023e-08 0.1 0.1
v 2.98023e-08 0.6 0.1
v 2.98023e-08 0.7 0.1
v 0.1 0.1 0.1
v 0.1 0.5 0.1
v 0.2 0.5 0.1
v 0.2 0.7 0.1
v -0.3 0.5 0.2
v -0.3 0.7 0.2
v -0.2 0.1 0.2
v -0.2 0.5 0.2
v -0.1 0.1 0.2
v -0.1 0.6 0.2
v -0.1 0.7 0.2
v 2.98023e-08 0.1 0.2
v 2.98023e-08 0.6 0.2
v 2.98023e-08 0.7 0.2
v 0.1 0.1 0.2
v 0.1 0.5 0.2
v 0.2 0.5 0.2
v 0.2 0.7 0.2
v -0.1 0.1 0.1
v -0.1 0.6 0.1
v 2.98023e-08 0.1 0.1
v 2.98023e-08 0.6 0.1
v -0.3 0 -2.98023e-08
v -0.3 0.1 -2.98023e-08
v -0.3 0.5 -2.98023e-08
v -0.3 0.7 -2.98023e-08
v -0.2 0 -2.98023e-08
v -0.2 0.1 -2.98023e-08
v -0.2 0.5 -2.98023e-08
v -0.1 0.1 -2.98023e-08
v -0.1 0.7 -2.98023e-08
v 2.98023e-08 0.1 -2.98023e-08
v 2.98023e-08 0.7 -2.98023e-08
v 0.1 0 -2.98023e-08
v 0.1 0.1 -2.98023e-08
v 0.1 0.5 -2.98023e-08
v 0.2 0 -2.98023e-08
v 0.2 0.1 -2.98023e-08
v 0.2 0.5 -2.98023e-08
v 0.2 0.7 -2.98023e-08
v -0.2 0 -0.1
v -0.2 0.1 -0.1
v 0.1 0 -0.1
v 0.1 0.1 -0.1
v -0.3 0 0.3
v 0.2 0 0.3
v -0.1 0 0.2
v 2.98023e-08 0 0.2
v -0.2 0 0.1
v -0.1 0 0.1
v 2.98023e-08 0 0.1
v -0.3 0 -2.98023e-08
v -0.2 0 -2.98023e-08
v -0.1 0 -2.98023e-08
v 0.1 0 -2.98023e-08
v 0.2 0 -2.98023e-08
v -0.2 0 -0.1
v 0.1 0 -0.1
v -0.3 0.5 0.3
v -0.2 0.5 0.3
v 0.1 0.5 0.3
v 0.2 0.5 0.3
v -0.3 0.5 0.2
v -0.2 0.5 0.2
v 0.1 0.5 0.2
v 0.2 0.5 0.2
v -0.3 0.5 0.1
v -0.2 0.5 0.1
v 0.1 0.5 0.1
v 0.2 0.5 0.1
v -0.3 0.5 -2.98023e-08
v -0.2 0.5 -2.98023e-08
v 0.1 0.5 -2.98023e-08
v 0.2 0.5 -2.98023e-08
v -0.3 0.1 0.3
v -0.2 0.1 0.3
v -0.1 0.1 0.3
v 2.98023e-08 0.1 0.3
v 0.1 0.1 0.3
v 0.2 0.1 0.3
v -0.2 0.1 0.2
v -0.1 0.1 0.2
v 2.98023e-08 0.1 0.2
v 0.1 0.1 0.2
v -0.2 0.1 0.1
v -0.1 0.1 0.1
v 2.98023e-08 0.1 0.1
v 0.1 0.1 0.1
v -0.3 0.1 -2.98023e-08
v -0.2 0.1 -2.98023e-08
v -0.1 0.1 -2.98023e-08
v 2.98023e-08 0.1 -2.98023e-08
v 0.1 0.1 -2.98023e-08
v 0.2 0.1 -2.98023e-08
v -0.2 0.1 -0.1
v 0.1 0.1 -0.1
v -0.1 0.6 0.2
v 2.98023e-08 0.6 0.2
v -0.1 0.6 0.1
v 2.98023e-08 0.6 0.1
v -0.3 0.7 0.3
v -0.1 0.7 0.3
v 2.98023e-08 0.7 0.3
v 0.2 0.7 0.3
v -0.3 0.7 0.2
v -0.1 0.7 0.2
v 2.98023e-08 0.7 0.2
v 0.2 0.7 0.2
v -0.3 0.7 0.1
v -0.1 0.7 0.1
v 2.98023e-08 0.7 0.1
v 0.2 0.7 0.1
v -0.3 0.7 -2.98023e-08
v -0.1 0.7 -2.98023e-08
v 2.98023e-08 0.7 -2.98023e-08
v 0.2 0.7 -2.98023e-08

# faces
f 3/1/1 2/1/1 1/1/1
f 4/1/1 2/1/1 3/1/1
f 9/3/1 6/3/1 5/3/1
f 10/3/1 6/3/1 9/3/1
f 11/3/1 8/3/1 7/3/1
f 12/3/1 8/3/1 11/3/1
f 18/1/1 14/1/1 13/1/1
f 19/1/1 14/1/1 18/1/1
f 20/3/1 16/3/1 15/3/1
f 21/3/1 16/3/1 20/3/1
f 22/3/1 18/3/1 17/3/1
f 23/3/1 18/3/1 22/3/1
f 26/3/1 25/3/1 24/3/1
f 27/3/1 25/3/1 26/3/1
f 32/3/1 29/3/1 28/3/1
f 33/3/1 31/3/1 30/3/1
f 34/3/1 32/3/1 28/3/1
f 35/3/1 32/3/1 34/3/1
f 36/3/1 31/3/1 33/3/1
f 37/3/1 31/3/1 36/3/1
f 38/3/2 39/3/2 42/3/2
f 40/3/2 41/3/2 43/3/2
f 38/3/2 42/3/2 44/3/2
f 44/3/2 42/3/2 45/3/2
f 43/3/2 41/3/2 46/3/2
f 46/3/2 41/3/2 47/3/2
f 48/3/2 49/3/2 50/3/2
f 50/3/2 49/3/2 51/3/2
f 52/1/2 53/1/2 57/1/2
f 57/1/2 53/1/2 58/1/2
f 54/3/2 55/3/2 59/3/2
f 59/3/2 55/3/2 60/3/2
f 56/3/2 57/3/2 61/3/2
f 61/3/2 57/3/2 62/3/2
f 63/1/2 64/1/2 65/1/2
f 65/1/2 64/1/2 66/1/2
f 67/3/2 68/3/2 71/3/2
f 71/3/2 68/3/2 72/3/2
f 69/3/2 70/3/2 73/3/2
f 73/3/2 70/3/2 74/3/2
f 79/1/3 76/1/3 75/1/3
f 80/3/3 78/3/3 77/3/3
f 81/1/3 79/1/3 75/1/3
f 81/3/3 80/3/3 79/3/3
f 82/3/3 78/3/3 80/3/3
f 82/3/3 80/3/3 81/3/3
f 83/1/3 81/1/3 75/1/3
f 85/1/3 83/1/3 75/1/3
f 85/3/3 84/3/3 83/3/3
f 86/3/3 84/3/3 85/3/3
f 87/1/3 85/1/3 75/1/3
f 88/1/3 85/1/3 87/1/3
f 89/3/3 84/3/3 86/3/3
f 90/3/3 84/3/3 89/3/3
f 93/3/3 92/3/3 91/3/3
f 94/3/3 92/3/3 93/3/3
f 98/3/3 96/3/3 95/3/3
f 99/3/3 98/3/3 97/3/3
f 100/3/3 96/3/3 98/3/3
f 100/3/3 98/3/3 99/3/3
f 101/3/3 96/3/3 100/3/3
f 105/3/3 103/3/3 102/3/3
f 105/3/3 104/3/3 103/3/3
f 106/3/3 104/3/3 105/3/3
f 107/3/3 104/3/3 106/3/3
f 108/3/3 104/3/3 107/3/3
f 109/3/4 110/3/4 112/3/4
f 111/3/4 112/3/4 113/3/4
f 112/3/4 110/3/4 114/3/4
f 113/3/4 112/3/4 114/3/4
f 114/3/4 110/3/4 115/3/4
f 116/3/4 117/3/4 119/3/4
f 117/3/4 118/3/4 119/3/4
f 119/3/4 118/3/4 120/3/4
f 120/3/4 118/3/4 121/3/4
f 121/3/4 118/3/4 122/3/4
f 123/3/4 124/3/4 125/3/4
f 125/3/4 124/3/4 126/3/4
f 127/1/4 128/1/4 131/1/4
f 131/1/4 128/1/4 132/1/4
f 129/3/4 130/3/4 133/3/4
f 132/3/4 133/3/4 134/3/4
f 133/3/4 130/3/4 135/3/4
f 134/3/4 133/3/4 135/3/4
f 136/3/4 137/3/4 139/3/4
f 139/3/4 137/3/4 140/3/4
f 138/1/4 139/1/4 141/1/4
f 141/1/4 139/1/4 142/1/4
f 140/3/4 137/3/4 143/3/4
f 143/3/4 137/3/4 144/3/4
f 145/1/4 146/1/4 147/1/4
f 147/1/4 146/1/4 148/1/4
f 151/1/5 150/1/5 149/1/5
f 152/1/5 150/1/5 151/1/5
f 153/1/5 151/1/5 149/1/5
f 154/2/5 152/2/5 151/2/5
f 154/1/5 151/1/5 153/1/5
f 155/1/5 150/1/5 152/1/5
f 155/2/5 152/2/5 154/2/5
f 156/1/5 153/1/5 149/1/5
f 157/2/5 154/2/5 153/2/5
f 157/1/5 153/1/5 156/1/5
f 158/1/5 155/1/5 154/1/5
f 158/2/5 154/2/5 157/2/5
f 159/1/5 150/1/5 155/1/5
f 159/1/5 155/1/5 158/1/5
f 160/1/5 150/1/5 159/1/5
f 161/1/5 158/1/5 157/1/5
f 161/1/5 159/1/5 158/1/5
f 162/1/5 159/1/5 161/1/5
f 167/3/5 164/3/5 163/3/5
f 168/3/5 164/3/5 167/3/5
f 169/3/5 166/3/5 165/3/5
f 170/3/5 166/3/5 169/3/5
f 175/3/5 172/3/5 171/3/5
f 176/3/5 172/3/5 175/3/5
f 177/3/5 174/3/5 173/3/5
f 178/3/5 174/3/5 177/3/5
f 179/1/6 180/1/6 185/1/6
f 181/1/6 182/1/6 186/1/6
f 186/1/6 182/1/6 187/1/6
f 183/1/6 184/1/6 188/1/6
f 179/1/6 185/1/6 189/1/6
f 185/1/6 186/1/6 189/1/6
f 189/1/6 186/1/6 190/1/6
f 187/1/6 188/1/6 191/1/6
f 188/1/6 184/1/6 192/1/6
f 191/1/6 188/1/6 192/1/6
f 179/1/6 189/1/6 193/1/6
f 193/1/6 189/1/6 194/1/6
f 190/1/6 191/1/6 195/1/6
f 195/1/6 191/1/6 196/1/6
f 192/1/6 184/1/6 197/1/6
f 197/1/6 184/1/6 198/1/6
f 195/1/6 196/1/6 199/1/6
f 196/1/6 197/1/6 199/1/6
f 194/1/6 195/1/6 199/1/6
f 199/1/6 197/1/6 200/1/6
f 201/3/6 202/3/6 203/3/6
f 203/3/6 202/3/6 204/3/6
f 205/3/6 206/3/6 209/3/6
f 209/3/6 206/3/6 210/3/6
f 207/3/6 208/3/6 211/3/6
f 211/3/6 208/3/6 212/3/6
f 213/3/6 214/3/6 217/3/6
f 217/3/6 214/3/6 218/3/6
f 215/3/6 216/3/6 219/3/6
f 219/3/6 216/3/6 220/3/6
