# MagicaVoxel @ Ephtracy

# group
o 

# material
mtllib suitcase.mtl
usemtl palette

# normals
vn -1 0 0
vn 1 0 0
vn 0 0 1
vn 0 0 -1
vn 0 -1 0
vn 0 1 0

# texcoords
vt 0.169922 0.5
vt 0.173828 0.5
vt 0.310547 0.5
vt 0.494141 0.5

# verts
v -1.2 0 0.0999999
v -1.2 0 -7.45058e-08
v -1.2 0 -0.7
v -1.2 0 -0.8
v -1.2 0.2 0.0999999
v -1.2 0.2 -7.45058e-08
v -1.2 0.2 -0.7
v -1.2 0.2 -0.8
v -1.2 0.9 0.0999999
v -1.2 0.9 -7.45058e-08
v -1.2 0.9 -0.7
v -1.2 0.9 -0.8
v -1.2 1.1 0.0999999
v -1.2 1.1 -7.45058e-08
v -1.2 1.1 -0.7
v -1.2 1.1 -0.8
v -0.4 1.1 -0.2
v -0.4 1.1 -0.5
v -0.4 1.2 -0.2
v -0.4 1.2 -0.3
v -0.4 1.2 -0.4
v -0.4 1.2 -0.5
v -0.4 1.4 -0.3
v -0.4 1.4 -0.4
v 0.3 1.1 -0.2
v 0.3 1.1 -0.5
v 0.3 1.2 -0.2
v 0.3 1.2 -0.3
v 0.3 1.2 -0.4
v 0.3 1.2 -0.5
v 0.3 1.3 -0.3
v 0.3 1.3 -0.4
v -0.3 1.1 -0.2
v -0.3 1.1 -0.5
v -0.3 1.2 -0.2
v -0.3 1.2 -0.3
v -0.3 1.2 -0.4
v -0.3 1.2 -0.5
v -0.3 1.3 -0.3
v -0.3 1.3 -0.4
v 0.4 1.1 -0.2
v 0.4 1.1 -0.5
v 0.4 1.2 -0.2
v 0.4 1.2 -0.3
v 0.4 1.2 -0.4
v 0.4 1.2 -0.5
v 0.4 1.4 -0.3
v 0.4 1.4 -0.4
v 1.2 0 0.0999999
v 1.2 0 -7.45058e-08
v 1.2 0 -0.7
v 1.2 0 -0.8
v 1.2 0.2 0.0999999
v 1.2 0.2 -7.45058e-08
v 1.2 0.2 -0.7
v 1.2 0.2 -0.8
v 1.2 0.9 0.0999999
v 1.2 0.9 -7.45058e-08
v 1.2 0.9 -0.7
v 1.2 0.9 -0.8
v 1.2 1.1 0.0999999
v 1.2 1.1 -7.45058e-08
v 1.2 1.1 -0.7
v 1.2 1.1 -0.8
v -1.2 0 0.0999999
v -1.2 0.2 0.0999999
v -1.2 0.9 0.0999999
v -1.2 1.1 0.0999999
v -1.1 0.1 0.0999999
v -1.1 0.2 0.0999999
v -1.1 0.9 0.0999999
v -1.1 1 0.0999999
v -1 0 0.0999999
v -1 0.1 0.0999999
v -1 1 0.0999999
v -1 1.1 0.0999999
v 1 0 0.0999999
v 1 0.1 0.0999999
v 1 1 0.0999999
v 1 1.1 0.0999999
v 1.1 0.1 0.0999999
v 1.1 0.2 0.0999999
v 1.1 0.9 0.0999999
v 1.1 1 0.0999999
v 1.2 0 0.0999999
v 1.2 0.2 0.0999999
v 1.2 0.9 0.0999999
v 1.2 1.1 0.0999999
v -0.4 1.1 -0.2
v -0.4 1.2 -0.2
v -0.3 1.1 -0.2
v -0.3 1.2 -0.2
v 0.3 1.1 -0.2
v 0.3 1.2 -0.2
v 0.4 1.1 -0.2
v 0.4 1.2 -0.2
v -0.4 1.2 -0.3
v -0.4 1.4 -0.3
v -0.3 1.2 -0.3
v -0.3 1.3 -0.3
v 0.3 1.2 -0.3
v 0.3 1.3 -0.3
v 0.4 1.2 -0.3
v 0.4 1.4 -0.3
v -0.4 1.2 -0.4
v -0.4 1.4 -0.4
v -0.3 1.2 -0.4
v -0.3 1.3 -0.4
v 0.3 1.2 -0.4
v 0.3 1.3 -0.4
v 0.4 1.2 -0.4
v 0.4 1.4 -0.4
v -0.4 1.1 -0.5
v -0.4 1.2 -0.5
v -0.3 1.1 -0.5
v -0.3 1.2 -0.5
v 0.3 1.1 -0.5
v 0.3 1.2 -0.5
v 0.4 1.1 -0.5
v 0.4 1.2 -0.5
v -1.2 0 -0.8
v -1.2 0.2 -0.8
v -1.2 0.9 -0.8
v -1.2 1.1 -0.8
v -1.1 0.1 -0.8
v -1.1 0.2 -0.8
v -1.1 0.9 -0.8
v -1.1 1 -0.8
v -1 0 -0.8
v -1 0.1 -0.8
v -1 1 -0.8
v -1 1.1 -0.8
v 1 0 -0.8
v 1 0.1 -0.8
v 1 1 -0.8
v 1 1.1 -0.8
v 1.1 0.1 -0.8
v 1.1 0.2 -0.8
v 1.1 0.9 -0.8
v 1.1 1 -0.8
v 1.2 0 -0.8
v 1.2 0.2 -0.8
v 1.2 0.9 -0.8
v 1.2 1.1 -0.8
v -1.2 0 0.0999999
v -1 0 0.0999999
v 1 0 0.0999999
v 1.2 0 0.0999999
v -1.2 0 -7.45058e-08
v -1 0 -7.45058e-08
v 1 0 -7.45058e-08
v 1.2 0 -7.45058e-08
v -1.2 0 -0.7
v -1 0 -0.7
v 1 0 -0.7
v 1.2 0 -0.7
v -1.2 0 -0.8
v -1 0 -0.8
v 1 0 -0.8
v 1.2 0 -0.8
v -0.3 1.3 -0.3
v 0.3 1.3 -0.3
v -0.3 1.3 -0.4
v 0.3 1.3 -0.4
v -1.2 1.1 0.0999999
v -1 1.1 0.0999999
v 1 1.1 0.0999999
v 1.2 1.1 0.0999999
v -1.2 1.1 -7.45058e-08
v -1 1.1 -7.45058e-08
v 1 1.1 -7.45058e-08
v 1.2 1.1 -7.45058e-08
v -0.4 1.1 -0.2
v -0.3 1.1 -0.2
v 0.3 1.1 -0.2
v 0.4 1.1 -0.2
v -0.4 1.1 -0.5
v -0.3 1.1 -0.5
v 0.3 1.1 -0.5
v 0.4 1.1 -0.5
v -1.2 1.1 -0.7
v -1 1.1 -0.7
v 1 1.1 -0.7
v 1.2 1.1 -0.7
v -1.2 1.1 -0.8
v -1 1.1 -0.8
v 1 1.1 -0.8
v 1.2 1.1 -0.8
v -0.4 1.2 -0.2
v -0.3 1.2 -0.2
v 0.3 1.2 -0.2
v 0.4 1.2 -0.2
v -0.4 1.2 -0.3
v -0.3 1.2 -0.3
v 0.3 1.2 -0.3
v 0.4 1.2 -0.3
v -0.4 1.2 -0.4
v -0.3 1.2 -0.4
v 0.3 1.2 -0.4
v 0.4 1.2 -0.4
v -0.4 1.2 -0.5
v -0.3 1.2 -0.5
v 0.3 1.2 -0.5
v 0.4 1.2 -0.5
v -0.4 1.4 -0.3
v 0.4 1.4 -0.3
v -0.4 1.4 -0.4
v 0.4 1.4 -0.4

# faces
f 5/3/1 2/3/1 1/3/1
f 6/1/1 3/1/1 2/1/1
f 6/3/1 2/3/1 5/3/1
f 7/3/1 4/3/1 3/3/1
f 7/1/1 3/1/1 6/1/1
f 8/3/1 4/3/1 7/3/1
f 9/1/1 6/1/1 5/1/1
f 9/1/1 7/1/1 6/1/1
f 9/1/1 8/1/1 7/1/1
f 10/1/1 8/1/1 9/1/1
f 11/1/1 8/1/1 10/1/1
f 12/1/1 8/1/1 11/1/1
f 13/3/1 10/3/1 9/3/1
f 14/1/1 11/1/1 10/1/1
f 14/3/1 10/3/1 13/3/1
f 15/3/1 12/3/1 11/3/1
f 15/1/1 11/1/1 14/1/1
f 16/3/1 12/3/1 15/3/1
f 19/4/1 18/4/1 17/4/1
f 20/4/1 18/4/1 19/4/1
f 21/4/1 18/4/1 20/4/1
f 22/4/1 18/4/1 21/4/1
f 23/1/1 21/1/1 20/1/1
f 24/1/1 21/1/1 23/1/1
f 27/4/1 26/4/1 25/4/1
f 28/4/1 26/4/1 27/4/1
f 29/4/1 26/4/1 28/4/1
f 30/4/1 26/4/1 29/4/1
f 31/1/1 29/1/1 28/1/1
f 32/1/1 29/1/1 31/1/1
f 33/4/2 34/4/2 35/4/2
f 35/4/2 34/4/2 36/4/2
f 36/4/2 34/4/2 37/4/2
f 37/4/2 34/4/2 38/4/2
f 36/1/2 37/1/2 39/1/2
f 39/1/2 37/1/2 40/1/2
f 41/4/2 42/4/2 43/4/2
f 43/4/2 42/4/2 44/4/2
f 44/4/2 42/4/2 45/4/2
f 45/4/2 42/4/2 46/4/2
f 44/1/2 45/1/2 47/1/2
f 47/1/2 45/1/2 48/1/2
f 49/3/2 50/3/2 53/3/2
f 50/1/2 51/1/2 54/1/2
f 53/3/2 50/3/2 54/3/2
f 51/3/2 52/3/2 55/3/2
f 54/1/2 51/1/2 55/1/2
f 55/3/2 52/3/2 56/3/2
f 53/1/2 54/1/2 57/1/2
f 54/1/2 55/1/2 57/1/2
f 55/1/2 56/1/2 57/1/2
f 57/1/2 56/1/2 58/1/2
f 58/1/2 56/1/2 59/1/2
f 59/1/2 56/1/2 60/1/2
f 57/3/2 58/3/2 61/3/2
f 58/1/2 59/1/2 62/1/2
f 61/3/2 58/3/2 62/3/2
f 59/3/2 60/3/2 63/3/2
f 62/1/2 59/1/2 63/1/2
f 63/3/2 60/3/2 64/3/2
f 69/3/3 66/3/3 65/3/3
f 70/1/3 67/1/3 66/1/3
f 70/3/3 66/3/3 69/3/3
f 71/3/3 68/3/3 67/3/3
f 71/1/3 67/1/3 70/1/3
f 72/3/3 68/3/3 71/3/3
f 73/3/3 69/3/3 65/3/3
f 74/1/3 70/1/3 69/1/3
f 74/3/3 69/3/3 73/3/3
f 74/1/3 71/1/3 70/1/3
f 74/1/3 72/1/3 71/1/3
f 75/3/3 68/3/3 72/3/3
f 75/1/3 72/1/3 74/1/3
f 76/3/3 68/3/3 75/3/3
f 77/1/3 74/1/3 73/1/3
f 77/1/3 75/1/3 74/1/3
f 77/1/3 76/1/3 75/1/3
f 78/1/3 76/1/3 77/1/3
f 79/1/3 76/1/3 78/1/3
f 80/1/3 76/1/3 79/1/3
f 81/3/3 78/3/3 77/3/3
f 81/1/3 79/1/3 78/1/3
f 82/1/3 79/1/3 81/1/3
f 83/1/3 79/1/3 82/1/3
f 84/3/3 80/3/3 79/3/3
f 84/1/3 79/1/3 83/1/3
f 85/3/3 81/3/3 77/3/3
f 85/3/3 82/3/3 81/3/3
f 86/1/3 83/1/3 82/1/3
f 86/3/3 82/3/3 85/3/3
f 87/3/3 84/3/3 83/3/3
f 87/1/3 83/1/3 86/1/3
f 88/3/3 80/3/3 84/3/3
f 88/3/3 84/3/3 87/3/3
f 91/4/3 90/4/3 89/4/3
f 92/4/3 90/4/3 91/4/3
f 95/4/3 94/4/3 93/4/3
f 96/4/3 94/4/3 95/4/3
f 99/1/3 98/1/3 97/1/3
f 100/1/3 98/1/3 99/1/3
f 102/1/3 98/1/3 100/1/3
f 103/1/3 102/1/3 101/1/3
f 104/1/3 98/1/3 102/1/3
f 104/1/3 102/1/3 103/1/3
f 105/1/4 106/1/4 107/1/4
f 107/1/4 106/1/4 108/1/4
f 108/1/4 106/1/4 110/1/4
f 109/1/4 110/1/4 111/1/4
f 110/1/4 106/1/4 112/1/4
f 111/1/4 110/1/4 112/1/4
f 113/4/4 114/4/4 115/4/4
f 115/4/4 114/4/4 116/4/4
f 117/4/4 118/4/4 119/4/4
f 119/4/4 118/4/4 120/4/4
f 121/3/4 122/3/4 125/3/4
f 122/1/4 123/1/4 126/1/4
f 125/3/4 122/3/4 126/3/4
f 123/3/4 124/3/4 127/3/4
f 126/1/4 123/1/4 127/1/4
f 127/3/4 124/3/4 128/3/4
f 121/3/4 125/3/4 129/3/4
f 125/1/4 126/1/4 130/1/4
f 129/3/4 125/3/4 130/3/4
f 126/1/4 127/1/4 130/1/4
f 127/1/4 128/1/4 130/1/4
f 128/3/4 124/3/4 131/3/4
f 130/1/4 128/1/4 131/1/4
f 131/3/4 124/3/4 132/3/4
f 129/1/4 130/1/4 133/1/4
f 130/1/4 131/1/4 133/1/4
f 131/1/4 132/1/4 133/1/4
f 133/1/4 132/1/4 134/1/4
f 134/1/4 132/1/4 135/1/4
f 135/1/4 132/1/4 136/1/4
f 133/3/4 134/3/4 137/3/4
f 134/1/4 135/1/4 137/1/4
f 137/1/4 135/1/4 138/1/4
f 138/1/4 135/1/4 139/1/4
f 135/3/4 136/3/4 140/3/4
f 139/1/4 135/1/4 140/1/4
f 133/3/4 137/3/4 141/3/4
f 137/3/4 138/3/4 141/3/4
f 138/1/4 139/1/4 142/1/4
f 141/3/4 138/3/4 142/3/4
f 139/3/4 140/3/4 143/3/4
f 142/1/4 139/1/4 143/1/4
f 140/3/4 136/3/4 144/3/4
f 143/3/4 140/3/4 144/3/4
f 149/3/5 146/3/5 145/3/5
f 150/1/5 147/1/5 146/1/5
f 150/3/5 146/3/5 149/3/5
f 151/3/5 148/3/5 147/3/5
f 151/1/5 147/1/5 150/1/5
f 152/3/5 148/3/5 151/3/5
f 153/1/5 150/1/5 149/1/5
f 153/1/5 151/1/5 150/1/5
f 153/1/5 152/1/5 151/1/5
f 154/1/5 152/1/5 153/1/5
f 155/1/5 152/1/5 154/1/5
f 156/1/5 152/1/5 155/1/5
f 157/3/5 154/3/5 153/3/5
f 158/1/5 155/1/5 154/1/5
f 158/3/5 154/3/5 157/3/5
f 159/3/5 156/3/5 155/3/5
f 159/1/5 155/1/5 158/1/5
f 160/3/5 156/3/5 159/3/5
f 163/1/5 162/1/5 161/1/5
f 164/1/5 162/1/5 163/1/5
f 165/3/6 166/3/6 169/3/6
f 166/1/6 167/1/6 170/1/6
f 169/3/6 166/3/6 170/3/6
f 167/3/6 168/3/6 171/3/6
f 170/1/6 167/1/6 171/1/6
f 171/3/6 168/3/6 172/3/6
f 169/1/6 170/1/6 173/1/6
f 170/1/6 171/1/6 173/1/6
f 171/1/6 172/1/6 173/1/6
f 173/1/6 172/1/6 174/1/6
f 174/1/6 172/1/6 175/1/6
f 175/1/6 172/1/6 176/1/6
f 169/1/6 173/1/6 177/1/6
f 174/1/6 175/1/6 178/1/6
f 178/1/6 175/1/6 179/1/6
f 176/1/6 172/1/6 180/1/6
f 178/1/6 179/1/6 181/1/6
f 179/1/6 180/1/6 181/1/6
f 169/1/6 177/1/6 181/1/6
f 177/1/6 178/1/6 181/1/6
f 181/1/6 180/1/6 182/1/6
f 180/1/6 172/1/6 183/1/6
f 182/1/6 180/1/6 183/1/6
f 183/1/6 172/1/6 184/1/6
f 181/3/6 182/3/6 185/3/6
f 182/1/6 183/1/6 186/1/6
f 185/3/6 182/3/6 186/3/6
f 183/3/6 184/3/6 187/3/6
f 186/1/6 183/1/6 187/1/6
f 187/3/6 184/3/6 188/3/6
f 189/4/6 190/4/6 193/4/6
f 193/4/6 190/4/6 194/4/6
f 191/4/6 192/4/6 195/4/6
f 195/4/6 192/4/6 196/4/6
f 197/4/6 198/4/6 201/4/6
f 201/4/6 198/4/6 202/4/6
f 199/4/6 200/4/6 203/4/6
f 203/4/6 200/4/6 204/4/6
f 205/1/6 206/1/6 207/1/6
f 207/1/6 206/1/6 208/1/6
