# MagicaVoxel @ Ephtracy

# group
o 

# material
mtllib tomato.mtl
usemtl palette

# normals
vn -1 0 0
vn 1 0 0
vn 0 0 1
vn 0 0 -1
vn 0 -1 0
vn 0 1 0

# texcoords
vt 0.146484 0.5
vt 0.150391 0.5
vt 0.583984 0.5

# verts
v -0.3 0.1 -5.96046e-08
v -0.3 0.1 -0.3
v -0.3 0.4 -5.96046e-08
v -0.3 0.4 -0.3
v -0.2 0 -5.96046e-08
v -0.2 0 -0.3
v -0.2 0.1 0.0999999
v -0.2 0.1 -5.96046e-08
v -0.2 0.1 -0.3
v -0.2 0.1 -0.4
v -0.2 0.4 0.0999999
v -0.2 0.4 -5.96046e-08
v -0.2 0.4 -0.3
v -0.2 0.4 -0.4
v -0.2 0.5 -5.96046e-08
v -0.2 0.5 -0.3
v -0.1 0 0.0999999
v -0.1 0 -5.96046e-08
v -0.1 0 -0.3
v -0.1 0 -0.4
v -0.1 0.1 0.2
v -0.1 0.1 0.0999999
v -0.1 0.1 -5.96046e-08
v -0.1 0.1 -0.3
v -0.1 0.1 -0.4
v -0.1 0.1 -0.5
v -0.1 0.3 0.2
v -0.1 0.3 0.0999999
v -0.1 0.4 0.2
v -0.1 0.4 0.0999999
v -0.1 0.4 -5.96046e-08
v -0.1 0.4 -0.3
v -0.1 0.4 -0.4
v -0.1 0.4 -0.5
v -0.1 0.5 0.0999999
v -0.1 0.5 -5.96046e-08
v -0.1 0.5 -0.1
v -0.1 0.5 -0.2
v -0.1 0.5 -0.3
v -0.1 0.5 -0.4
v -0.1 0.6 -5.96046e-08
v -0.1 0.6 -0.1
v -0.1 0.6 -0.2
v -0.1 0.6 -0.3
v 2.98023e-08 0.5 -0.1
v 2.98023e-08 0.5 -0.2
v 2.98023e-08 0.6 -0.1
v 2.98023e-08 0.6 -0.2
v 0.1 0.5 -5.96046e-08
v 0.1 0.5 -0.1
v 0.1 0.5 -0.2
v 0.1 0.5 -0.3
v 0.1 0.6 -5.96046e-08
v 0.1 0.6 -0.1
v 0.1 0.6 -0.2
v 0.1 0.6 -0.3
v 2.98023e-08 0.5 -5.96046e-08
v 2.98023e-08 0.5 -0.1
v 2.98023e-08 0.5 -0.2
v 2.98023e-08 0.5 -0.3
v 2.98023e-08 0.6 -5.96046e-08
v 2.98023e-08 0.6 -0.1
v 2.98023e-08 0.6 -0.2
v 2.98023e-08 0.6 -0.3
v 0.1 0.5 -0.1
v 0.1 0.5 -0.2
v 0.1 0.6 -0.1
v 0.1 0.6 -0.2
v 0.2 0 0.0999999
v 0.2 0 -5.96046e-08
v 0.2 0 -0.3
v 0.2 0 -0.4
v 0.2 0.1 0.2
v 0.2 0.1 0.0999999
v 0.2 0.1 -5.96046e-08
v 0.2 0.1 -0.3
v 0.2 0.1 -0.4
v 0.2 0.1 -0.5
v 0.2 0.2 0.2
v 0.2 0.2 0.0999999
v 0.2 0.3 0.2
v 0.2 0.3 0.0999999
v 0.2 0.4 0.2
v 0.2 0.4 0.0999999
v 0.2 0.4 -5.96046e-08
v 0.2 0.4 -0.3
v 0.2 0.4 -0.4
v 0.2 0.4 -0.5
v 0.2 0.5 0.0999999
v 0.2 0.5 -5.96046e-08
v 0.2 0.5 -0.1
v 0.2 0.5 -0.2
v 0.2 0.5 -0.3
v 0.2 0.5 -0.4
v 0.2 0.6 -5.96046e-08
v 0.2 0.6 -0.1
v 0.2 0.6 -0.2
v 0.2 0.6 -0.3
v 0.3 0 -5.96046e-08
v 0.3 0 -0.3
v 0.3 0.1 0.0999999
v 0.3 0.1 -5.96046e-08
v 0.3 0.1 -0.3
v 0.3 0.1 -0.4
v 0.3 0.4 0.0999999
v 0.3 0.4 -5.96046e-08
v 0.3 0.4 -0.3
v 0.3 0.4 -0.4
v 0.3 0.5 -5.96046e-08
v 0.3 0.5 -0.3
v 0.4 0.1 -5.96046e-08
v 0.4 0.1 -0.3
v 0.4 0.4 -5.96046e-08
v 0.4 0.4 -0.3
v -0.1 0.1 0.2
v -0.1 0.3 0.2
v -0.1 0.4 0.2
v 2.98023e-08 0.1 0.2
v 2.98023e-08 0.2 0.2
v 2.98023e-08 0.3 0.2
v 2.98023e-08 0.4 0.2
v 0.1 0.3 0.2
v 0.1 0.4 0.2
v 0.2 0.1 0.2
v 0.2 0.2 0.2
v 0.2 0.3 0.2
v 0.2 0.4 0.2
v -0.2 0.1 0.0999999
v -0.2 0.4 0.0999999
v -0.1 0 0.0999999
v -0.1 0.1 0.0999999
v -0.1 0.3 0.0999999
v -0.1 0.4 0.0999999
v -0.1 0.5 0.0999999
v 2.98023e-08 0.1 0.0999999
v 2.98023e-08 0.4 0.0999999
v 0.1 0.4 0.0999999
v 0.2 0 0.0999999
v 0.2 0.1 0.0999999
v 0.2 0.2 0.0999999
v 0.2 0.3 0.0999999
v 0.2 0.4 0.0999999
v 0.2 0.5 0.0999999
v 0.3 0.1 0.0999999
v 0.3 0.4 0.0999999
v -0.3 0.1 -5.96046e-08
v -0.3 0.4 -5.96046e-08
v -0.2 0 -5.96046e-08
v -0.2 0.1 -5.96046e-08
v -0.2 0.4 -5.96046e-08
v -0.2 0.5 -5.96046e-08
v -0.1 0 -5.96046e-08
v -0.1 0.1 -5.96046e-08
v -0.1 0.4 -5.96046e-08
v -0.1 0.5 -5.96046e-08
v -0.1 0.6 -5.96046e-08
v 2.98023e-08 0.5 -5.96046e-08
v 2.98023e-08 0.6 -5.96046e-08
v 0.1 0.5 -5.96046e-08
v 0.1 0.6 -5.96046e-08
v 0.2 0 -5.96046e-08
v 0.2 0.1 -5.96046e-08
v 0.2 0.4 -5.96046e-08
v 0.2 0.5 -5.96046e-08
v 0.2 0.6 -5.96046e-08
v 0.3 0 -5.96046e-08
v 0.3 0.1 -5.96046e-08
v 0.3 0.4 -5.96046e-08
v 0.3 0.5 -5.96046e-08
v 0.4 0.1 -5.96046e-08
v 0.4 0.4 -5.96046e-08
v 2.98023e-08 0.5 -0.1
v 2.98023e-08 0.6 -0.1
v 0.1 0.5 -0.1
v 0.1 0.6 -0.1
v -0.1 0.5 -0.2
v -0.1 0.6 -0.2
v 2.98023e-08 0.5 -0.2
v 2.98023e-08 0.6 -0.2
v 0.1 0.5 -0.2
v 0.1 0.6 -0.2
v 0.2 0.5 -0.2
v 0.2 0.6 -0.2
v -0.1 0.5 -0.1
v -0.1 0.6 -0.1
v 2.98023e-08 0.5 -0.1
v 2.98023e-08 0.6 -0.1
v 0.1 0.5 -0.1
v 0.1 0.6 -0.1
v 0.2 0.5 -0.1
v 0.2 0.6 -0.1
v 2.98023e-08 0.5 -0.2
v 2.98023e-08 0.6 -0.2
v 0.1 0.5 -0.2
v 0.1 0.6 -0.2
v -0.3 0.1 -0.3
v -0.3 0.4 -0.3
v -0.2 0 -0.3
v -0.2 0.1 -0.3
v -0.2 0.4 -0.3
v -0.2 0.5 -0.3
v -0.1 0 -0.3
v -0.1 0.1 -0.3
v -0.1 0.4 -0.3
v -0.1 0.5 -0.3
v -0.1 0.6 -0.3
v 2.98023e-08 0.5 -0.3
v 2.98023e-08 0.6 -0.3
v 0.1 0.5 -0.3
v 0.1 0.6 -0.3
v 0.2 0 -0.3
v 0.2 0.1 -0.3
v 0.2 0.4 -0.3
v 0.2 0.5 -0.3
v 0.2 0.6 -0.3
v 0.3 0 -0.3
v 0.3 0.1 -0.3
v 0.3 0.4 -0.3
v 0.3 0.5 -0.3
v 0.4 0.1 -0.3
v 0.4 0.4 -0.3
v -0.2 0.1 -0.4
v -0.2 0.4 -0.4
v -0.1 0 -0.4
v -0.1 0.1 -0.4
v -0.1 0.4 -0.4
v -0.1 0.5 -0.4
v 0.2 0 -0.4
v 0.2 0.1 -0.4
v 0.2 0.4 -0.4
v 0.2 0.5 -0.4
v 0.3 0.1 -0.4
v 0.3 0.4 -0.4
v -0.1 0.1 -0.5
v -0.1 0.4 -0.5
v 0.2 0.1 -0.5
v 0.2 0.4 -0.5
v -0.1 0 0.0999999
v 0.2 0 0.0999999
v -0.2 0 -5.96046e-08
v -0.1 0 -5.96046e-08
v 0.2 0 -5.96046e-08
v 0.3 0 -5.96046e-08
v -0.2 0 -0.3
v -0.1 0 -0.3
v 0.2 0 -0.3
v 0.3 0 -0.3
v -0.1 0 -0.4
v 0.2 0 -0.4
v -0.1 0.1 0.2
v 2.98023e-08 0.1 0.2
v 0.2 0.1 0.2
v -0.2 0.1 0.0999999
v -0.1 0.1 0.0999999
v 2.98023e-08 0.1 0.0999999
v 0.2 0.1 0.0999999
v 0.3 0.1 0.0999999
v -0.3 0.1 -5.96046e-08
v -0.2 0.1 -5.96046e-08
v -0.1 0.1 -5.96046e-08
v 0.2 0.1 -5.96046e-08
v 0.3 0.1 -5.96046e-08
v 0.4 0.1 -5.96046e-08
v -0.3 0.1 -0.3
v -0.2 0.1 -0.3
v -0.1 0.1 -0.3
v 0.2 0.1 -0.3
v 0.3 0.1 -0.3
v 0.4 0.1 -0.3
v -0.2 0.1 -0.4
v -0.1 0.1 -0.4
v 0.2 0.1 -0.4
v 0.3 0.1 -0.4
v -0.1 0.1 -0.5
v 0.2 0.1 -0.5
v -0.1 0.4 0.2
v 2.98023e-08 0.4 0.2
v 0.1 0.4 0.2
v 0.2 0.4 0.2
v -0.2 0.4 0.0999999
v -0.1 0.4 0.0999999
v 2.98023e-08 0.4 0.0999999
v 0.1 0.4 0.0999999
v 0.2 0.4 0.0999999
v 0.3 0.4 0.0999999
v -0.3 0.4 -5.96046e-08
v -0.2 0.4 -5.96046e-08
v -0.1 0.4 -5.96046e-08
v 0.2 0.4 -5.96046e-08
v 0.3 0.4 -5.96046e-08
v 0.4 0.4 -5.96046e-08
v -0.3 0.4 -0.3
v -0.2 0.4 -0.3
v -0.1 0.4 -0.3
v 0.2 0.4 -0.3
v 0.3 0.4 -0.3
v 0.4 0.4 -0.3
v -0.2 0.4 -0.4
v -0.1 0.4 -0.4
v 0.2 0.4 -0.4
v 0.3 0.4 -0.4
v -0.1 0.4 -0.5
v 0.2 0.4 -0.5
v -0.1 0.5 0.0999999
v 0.2 0.5 0.0999999
v -0.2 0.5 -5.96046e-08
v -0.1 0.5 -5.96046e-08
v 2.98023e-08 0.5 -5.96046e-08
v 0.1 0.5 -5.96046e-08
v 0.2 0.5 -5.96046e-08
v 0.3 0.5 -5.96046e-08
v -0.1 0.5 -0.1
v 2.98023e-08 0.5 -0.1
v 0.1 0.5 -0.1
v 0.2 0.5 -0.1
v -0.1 0.5 -0.2
v 2.98023e-08 0.5 -0.2
v 0.1 0.5 -0.2
v 0.2 0.5 -0.2
v -0.2 0.5 -0.3
v -0.1 0.5 -0.3
v 2.98023e-08 0.5 -0.3
v 0.1 0.5 -0.3
v 0.2 0.5 -0.3
v 0.3 0.5 -0.3
v -0.1 0.5 -0.4
v 0.2 0.5 -0.4
v -0.1 0.6 -5.96046e-08
v 2.98023e-08 0.6 -5.96046e-08
v 0.1 0.6 -5.96046e-08
v 0.2 0.6 -5.96046e-08
v -0.1 0.6 -0.1
v 2.98023e-08 0.6 -0.1
v 0.1 0.6 -0.1
v 0.2 0.6 -0.1
v -0.1 0.6 -0.2
v 2.98023e-08 0.6 -0.2
v 0.1 0.6 -0.2
v 0.2 0.6 -0.2
v -0.1 0.6 -0.3
v 2.98023e-08 0.6 -0.3
v 0.1 0.6 -0.3
v 0.2 0.6 -0.3

# faces
f 3/1/1 2/1/1 1/1/1
f 4/1/1 2/1/1 3/1/1
f 8/1/1 6/1/1 5/1/1
f 9/1/1 6/1/1 8/1/1
f 11/1/1 8/1/1 7/1/1
f 12/1/1 8/1/1 11/1/1
f 13/1/1 10/1/1 9/1/1
f 14/1/1 10/1/1 13/1/1
f 15/1/1 13/1/1 12/1/1
f 16/1/1 13/1/1 15/1/1
f 22/1/1 18/1/1 17/1/1
f 23/1/1 18/1/1 22/1/1
f 24/1/1 20/1/1 19/1/1
f 25/1/1 20/1/1 24/1/1
f 27/1/1 22/1/1 21/1/1
f 28/1/1 22/1/1 27/1/1
f 29/2/1 28/2/1 27/2/1
f 30/2/1 28/2/1 29/2/1
f 33/1/1 26/1/1 25/1/1
f 34/1/1 26/1/1 33/1/1
f 35/1/1 31/1/1 30/1/1
f 36/1/1 31/1/1 35/1/1
f 39/1/1 33/1/1 32/1/1
f 40/1/1 33/1/1 39/1/1
f 41/3/1 37/3/1 36/3/1
f 42/3/1 37/3/1 41/3/1
f 43/3/1 39/3/1 38/3/1
f 44/3/1 39/3/1 43/3/1
f 47/3/1 46/3/1 45/3/1
f 48/3/1 46/3/1 47/3/1
f 53/3/1 50/3/1 49/3/1
f 54/3/1 50/3/1 53/3/1
f 55/3/1 52/3/1 51/3/1
f 56/3/1 52/3/1 55/3/1
f 57/3/2 58/3/2 61/3/2
f 61/3/2 58/3/2 62/3/2
f 59/3/2 60/3/2 63/3/2
f 63/3/2 60/3/2 64/3/2
f 65/3/2 66/3/2 67/3/2
f 67/3/2 66/3/2 68/3/2
f 69/1/2 70/1/2 74/1/2
f 74/1/2 70/1/2 75/1/2
f 71/1/2 72/1/2 76/1/2
f 76/1/2 72/1/2 77/1/2
f 73/2/2 74/2/2 79/2/2
f 79/2/2 74/2/2 80/2/2
f 79/1/2 80/1/2 81/1/2
f 81/1/2 80/1/2 82/1/2
f 81/2/2 82/2/2 83/2/2
f 83/2/2 82/2/2 84/2/2
f 77/1/2 78/1/2 87/1/2
f 87/1/2 78/1/2 88/1/2
f 84/1/2 85/1/2 89/1/2
f 89/1/2 85/1/2 90/1/2
f 86/1/2 87/1/2 93/1/2
f 93/1/2 87/1/2 94/1/2
f 90/3/2 91/3/2 95/3/2
f 95/3/2 91/3/2 96/3/2
f 92/3/2 93/3/2 97/3/2
f 97/3/2 93/3/2 98/3/2
f 99/1/2 100/1/2 102/1/2
f 102/1/2 100/1/2 103/1/2
f 101/1/2 102/1/2 105/1/2
f 105/1/2 102/1/2 106/1/2
f 103/1/2 104/1/2 107/1/2
f 107/1/2 104/1/2 108/1/2
f 106/1/2 107/1/2 109/1/2
f 109/1/2 107/1/2 110/1/2
f 111/1/2 112/1/2 113/1/2
f 113/1/2 112/1/2 114/1/2
f 118/1/3 116/1/3 115/1/3
f 119/1/3 116/1/3 118/1/3
f 120/2/3 117/2/3 116/2/3
f 120/1/3 116/1/3 119/1/3
f 121/2/3 117/2/3 120/2/3
f 122/1/3 120/1/3 119/1/3
f 122/1/3 121/1/3 120/1/3
f 123/1/3 121/1/3 122/1/3
f 124/2/3 119/2/3 118/2/3
f 125/1/3 122/1/3 119/1/3
f 125/2/3 119/2/3 124/2/3
f 126/2/3 123/2/3 122/2/3
f 126/1/3 122/1/3 125/1/3
f 127/2/3 123/2/3 126/2/3
f 131/1/3 129/1/3 128/1/3
f 132/1/3 129/1/3 131/1/3
f 133/1/3 129/1/3 132/1/3
f 135/1/3 131/1/3 130/1/3
f 136/1/3 134/1/3 133/1/3
f 137/1/3 134/1/3 136/1/3
f 138/1/3 135/1/3 130/1/3
f 139/1/3 135/1/3 138/1/3
f 142/1/3 134/1/3 137/1/3
f 143/1/3 134/1/3 142/1/3
f 144/1/3 141/1/3 140/1/3
f 144/1/3 142/1/3 141/1/3
f 144/1/3 140/1/3 139/1/3
f 145/1/3 142/1/3 144/1/3
f 149/1/3 147/1/3 146/1/3
f 150/1/3 147/1/3 149/1/3
f 152/1/3 149/1/3 148/1/3
f 153/1/3 149/1/3 152/1/3
f 154/1/3 151/1/3 150/1/3
f 155/1/3 151/1/3 154/1/3
f 157/3/3 156/3/3 155/3/3
f 158/3/3 156/3/3 157/3/3
f 164/3/3 160/3/3 159/3/3
f 165/3/3 160/3/3 164/3/3
f 166/1/3 162/1/3 161/1/3
f 167/1/3 162/1/3 166/1/3
f 168/1/3 164/1/3 163/1/3
f 169/1/3 164/1/3 168/1/3
f 170/1/3 168/1/3 167/1/3
f 171/1/3 168/1/3 170/1/3
f 174/3/3 173/3/3 172/3/3
f 175/3/3 173/3/3 174/3/3
f 178/3/3 177/3/3 176/3/3
f 179/3/3 177/3/3 178/3/3
f 182/3/3 181/3/3 180/3/3
f 183/3/3 181/3/3 182/3/3
f 184/3/4 185/3/4 186/3/4
f 186/3/4 185/3/4 187/3/4
f 188/3/4 189/3/4 190/3/4
f 190/3/4 189/3/4 191/3/4
f 192/3/4 193/3/4 194/3/4
f 194/3/4 193/3/4 195/3/4
f 196/1/4 197/1/4 199/1/4
f 199/1/4 197/1/4 200/1/4
f 198/1/4 199/1/4 202/1/4
f 202/1/4 199/1/4 203/1/4
f 200/1/4 201/1/4 204/1/4
f 204/1/4 201/1/4 205/1/4
f 205/3/4 206/3/4 207/3/4
f 207/3/4 206/3/4 208/3/4
f 209/3/4 210/3/4 214/3/4
f 214/3/4 210/3/4 215/3/4
f 211/1/4 212/1/4 216/1/4
f 216/1/4 212/1/4 217/1/4
f 213/1/4 214/1/4 218/1/4
f 218/1/4 214/1/4 219/1/4
f 217/1/4 218/1/4 220/1/4
f 220/1/4 218/1/4 221/1/4
f 222/1/4 223/1/4 225/1/4
f 225/1/4 223/1/4 226/1/4
f 224/1/4 225/1/4 228/1/4
f 228/1/4 225/1/4 229/1/4
f 226/1/4 227/1/4 230/1/4
f 230/1/4 227/1/4 231/1/4
f 229/1/4 230/1/4 232/1/4
f 232/1/4 230/1/4 233/1/4
f 234/1/4 235/1/4 236/1/4
f 236/1/4 235/1/4 237/1/4
f 241/1/5 239/1/5 238/1/5
f 242/1/5 239/1/5 241/1/5
f 244/1/5 241/1/5 240/1/5
f 244/1/5 243/1/5 242/1/5
f 244/1/5 242/1/5 241/1/5
f 245/1/5 243/1/5 244/1/5
f 246/1/5 243/1/5 245/1/5
f 247/1/5 243/1/5 246/1/5
f 248/1/5 246/1/5 245/1/5
f 249/1/5 246/1/5 248/1/5
f 254/1/5 251/1/5 250/1/5
f 255/2/5 252/2/5 251/2/5
f 255/1/5 251/1/5 254/1/5
f 256/2/5 252/2/5 255/2/5
f 259/1/5 254/1/5 253/1/5
f 260/1/5 254/1/5 259/1/5
f 261/1/5 257/1/5 256/1/5
f 262/1/5 257/1/5 261/1/5
f 264/1/5 259/1/5 258/1/5
f 265/1/5 259/1/5 264/1/5
f 268/1/5 263/1/5 262/1/5
f 269/1/5 263/1/5 268/1/5
f 270/1/5 266/1/5 265/1/5
f 271/1/5 266/1/5 270/1/5
f 272/1/5 268/1/5 267/1/5
f 273/1/5 268/1/5 272/1/5
f 274/1/5 272/1/5 271/1/5
f 275/1/5 272/1/5 274/1/5
f 276/2/6 277/2/6 281/2/6
f 277/1/6 278/1/6 282/1/6
f 281/2/6 277/2/6 282/2/6
f 278/2/6 279/2/6 283/2/6
f 282/1/6 278/1/6 283/1/6
f 283/2/6 279/2/6 284/2/6
f 280/1/6 281/1/6 287/1/6
f 287/1/6 281/1/6 288/1/6
f 284/1/6 285/1/6 289/1/6
f 289/1/6 285/1/6 290/1/6
f 286/1/6 287/1/6 292/1/6
f 292/1/6 287/1/6 293/1/6
f 290/1/6 291/1/6 296/1/6
f 296/1/6 291/1/6 297/1/6
f 293/1/6 294/1/6 298/1/6
f 298/1/6 294/1/6 299/1/6
f 295/1/6 296/1/6 300/1/6
f 300/1/6 296/1/6 301/1/6
f 299/1/6 300/1/6 302/1/6
f 302/1/6 300/1/6 303/1/6
f 304/1/6 305/1/6 307/1/6
f 307/1/6 305/1/6 308/1/6
f 308/1/6 305/1/6 309/1/6
f 309/1/6 305/1/6 310/1/6
f 306/1/6 307/1/6 312/1/6
f 308/1/6 309/1/6 313/1/6
f 313/1/6 309/1/6 314/1/6
f 310/1/6 311/1/6 315/1/6
f 306/1/6 312/1/6 316/1/6
f 312/1/6 313/1/6 316/1/6
f 316/1/6 313/1/6 317/1/6
f 314/1/6 315/1/6 318/1/6
f 315/1/6 311/1/6 319/1/6
f 318/1/6 315/1/6 319/1/6
f 306/1/6 316/1/6 320/1/6
f 320/1/6 316/1/6 321/1/6
f 317/1/6 318/1/6 322/1/6
f 322/1/6 318/1/6 323/1/6
f 319/1/6 311/1/6 324/1/6
f 324/1/6 311/1/6 325/1/6
f 322/1/6 323/1/6 326/1/6
f 323/1/6 324/1/6 326/1/6
f 321/1/6 322/1/6 326/1/6
f 326/1/6 324/1/6 327/1/6
f 328/3/6 329/3/6 332/3/6
f 332/3/6 329/3/6 333/3/6
f 330/3/6 331/3/6 334/3/6
f 334/3/6 331/3/6 335/3/6
f 333/3/6 334/3/6 337/3/6
f 337/3/6 334/3/6 338/3/6
f 336/3/6 337/3/6 340/3/6
f 340/3/6 337/3/6 341/3/6
f 338/3/6 339/3/6 342/3/6
f 342/3/6 339/3/6 343/3/6
