# MagicaVoxel @ Ephtracy

# group
o 

# material
mtllib tulip2.mtl
usemtl palette

# normals
vn -1 0 0
vn 1 0 0
vn 0 0 1
vn 0 0 -1
vn 0 -1 0
vn 0 1 0

# texcoords
vt 0.185547 0.5
vt 0.841797 0.5
vt 0.888672 0.5
vt 0.958984 0.5

# verts
v -0.4 0.4 0.0999999
v -0.4 0.4 -0.1
v -0.4 1.1 0.0999999
v -0.4 1.1 -0.1
v -0.3 0.3 0.0999999
v -0.3 0.3 -0.1
v -0.3 0.4 0.0999999
v -0.3 0.4 -0.1
v -0.2 0.2 0.0999999
v -0.2 0.2 -0.1
v -0.2 0.3 0.0999999
v -0.2 0.3 -0.1
v -0.2 1.4 0.0999999
v -0.2 1.4 -0.1
v -0.2 1.5 0.2
v -0.2 1.5 0.0999999
v -0.2 1.5 -0.1
v -0.2 1.5 -0.2
v -0.2 1.9 0.0999999
v -0.2 1.9 -0.1
v -0.2 2 0.2
v -0.2 2 0.0999999
v -0.2 2 -0.1
v -0.2 2 -0.2
v -0.1 0 0.0999999
v -0.1 0 -0.1
v -0.1 0.2 0.0999999
v -0.1 0.2 -0.1
v -0.1 0.5 0.0999999
v -0.1 0.5 -0.1
v -0.1 1.4 0.2
v -0.1 1.4 0.0999999
v -0.1 1.4 -0.1
v -0.1 1.4 -0.2
v -0.1 1.5 0.2
v -0.1 1.5 0.0999999
v -0.1 1.5 -0.1
v -0.1 1.5 -0.2
v -0.1 1.9 0.0999999
v -0.1 1.9 -5.96046e-08
v -0.1 2 0.0999999
v -0.1 2 -5.96046e-08
v 0 1.9 -5.96046e-08
v 0 1.9 -0.1
v 0 2 -5.96046e-08
v 0 2 -0.1
v 0.1 1.9 0.2
v 0.1 1.9 0.0999999
v 0.1 1.9 -0.1
v 0.1 1.9 -0.2
v 0.1 2 0.2
v 0.1 2 0.0999999
v 0.1 2 -0.1
v 0.1 2 -0.2
v 0.2 0.5 0.0999999
v 0.2 0.5 -0.1
v 0.2 0.7 0.0999999
v 0.2 0.7 -0.1
v 0.3 0.7 0.0999999
v 0.3 0.7 -0.1
v 0.3 1.1 0.0999999
v 0.3 1.1 -0.1
v -0.3 0.7 0.0999999
v -0.3 0.7 -0.1
v -0.3 1.1 0.0999999
v -0.3 1.1 -0.1
v -0.2 0.5 0.0999999
v -0.2 0.5 -0.1
v -0.2 0.7 0.0999999
v -0.2 0.7 -0.1
v -0.1 1.9 0.2
v -0.1 1.9 0.0999999
v -0.1 1.9 -0.1
v -0.1 1.9 -0.2
v -0.1 2 0.2
v -0.1 2 0.0999999
v -0.1 2 -0.1
v -0.1 2 -0.2
v 0 1.9 0.0999999
v 0 1.9 -5.96046e-08
v 0 2 0.0999999
v 0 2 -5.96046e-08
v 0.1 0 0.0999999
v 0.1 0 -0.1
v 0.1 0.2 0.0999999
v 0.1 0.2 -0.1
v 0.1 0.5 0.0999999
v 0.1 0.5 -0.1
v 0.1 1.4 0.2
v 0.1 1.4 0.0999999
v 0.1 1.4 -0.1
v 0.1 1.4 -0.2
v 0.1 1.5 0.2
v 0.1 1.5 0.0999999
v 0.1 1.5 -0.1
v 0.1 1.5 -0.2
v 0.1 1.9 -5.96046e-08
v 0.1 1.9 -0.1
v 0.1 2 -5.96046e-08
v 0.1 2 -0.1
v 0.2 0.2 0.0999999
v 0.2 0.2 -0.1
v 0.2 0.3 0.0999999
v 0.2 0.3 -0.1
v 0.2 1.4 0.0999999
v 0.2 1.4 -0.1
v 0.2 1.5 0.2
v 0.2 1.5 0.0999999
v 0.2 1.5 -0.1
v 0.2 1.5 -0.2
v 0.2 1.9 0.0999999
v 0.2 1.9 -0.1
v 0.2 2 0.2
v 0.2 2 0.0999999
v 0.2 2 -0.1
v 0.2 2 -0.2
v 0.3 0.3 0.0999999
v 0.3 0.3 -0.1
v 0.3 0.4 0.0999999
v 0.3 0.4 -0.1
v 0.4 0.4 0.0999999
v 0.4 0.4 -0.1
v 0.4 1.1 0.0999999
v 0.4 1.1 -0.1
v -0.2 1.5 0.2
v -0.2 2 0.2
v -0.1 1.4 0.2
v -0.1 1.5 0.2
v -0.1 1.9 0.2
v -0.1 2 0.2
v 0.1 1.4 0.2
v 0.1 1.5 0.2
v 0.1 1.9 0.2
v 0.1 2 0.2
v 0.2 1.5 0.2
v 0.2 2 0.2
v -0.4 0.4 0.0999999
v -0.4 1.1 0.0999999
v -0.3 0.3 0.0999999
v -0.3 0.4 0.0999999
v -0.3 0.7 0.0999999
v -0.3 1.1 0.0999999
v -0.2 0.2 0.0999999
v -0.2 0.3 0.0999999
v -0.2 0.5 0.0999999
v -0.2 0.7 0.0999999
v -0.2 1.4 0.0999999
v -0.2 1.5 0.0999999
v -0.1 0 0.0999999
v -0.1 0.2 0.0999999
v -0.1 0.5 0.0999999
v -0.1 1.4 0.0999999
v -0.1 1.5 0.0999999
v -0.1 1.9 0.0999999
v -0.1 2 0.0999999
v 0 1.9 0.0999999
v 0 2 0.0999999
v 0.1 0 0.0999999
v 0.1 0.2 0.0999999
v 0.1 0.5 0.0999999
v 0.1 1.4 0.0999999
v 0.1 1.5 0.0999999
v 0.2 0.2 0.0999999
v 0.2 0.3 0.0999999
v 0.2 0.5 0.0999999
v 0.2 0.7 0.0999999
v 0.2 1.4 0.0999999
v 0.2 1.5 0.0999999
v 0.3 0.3 0.0999999
v 0.3 0.4 0.0999999
v 0.3 0.7 0.0999999
v 0.3 1.1 0.0999999
v 0.4 0.4 0.0999999
v 0.4 1.1 0.0999999
v 0 1.9 -5.96046e-08
v 0 2 -5.96046e-08
v 0.1 1.9 -5.96046e-08
v 0.1 2 -5.96046e-08
v -0.2 1.9 -0.1
v -0.2 2 -0.1
v -0.1 1.9 -0.1
v -0.1 2 -0.1
v 0.1 1.9 -0.1
v 0.1 2 -0.1
v 0.2 1.9 -0.1
v 0.2 2 -0.1
v -0.2 1.9 0.0999999
v -0.2 2 0.0999999
v -0.1 1.9 0.0999999
v -0.1 2 0.0999999
v 0.1 1.9 0.0999999
v 0.1 2 0.0999999
v 0.2 1.9 0.0999999
v 0.2 2 0.0999999
v -0.1 1.9 -5.96046e-08
v -0.1 2 -5.96046e-08
v 0 1.9 -5.96046e-08
v 0 2 -5.96046e-08
v -0.4 0.4 -0.1
v -0.4 1.1 -0.1
v -0.3 0.3 -0.1
v -0.3 0.4 -0.1
v -0.3 0.7 -0.1
v -0.3 1.1 -0.1
v -0.2 0.2 -0.1
v -0.2 0.3 -0.1
v -0.2 0.5 -0.1
v -0.2 0.7 -0.1
v -0.2 1.4 -0.1
v -0.2 1.5 -0.1
v -0.1 0 -0.1
v -0.1 0.2 -0.1
v -0.1 0.5 -0.1
v -0.1 1.4 -0.1
v -0.1 1.5 -0.1
v 0 1.9 -0.1
v 0 2 -0.1
v 0.1 0 -0.1
v 0.1 0.2 -0.1
v 0.1 0.5 -0.1
v 0.1 1.4 -0.1
v 0.1 1.5 -0.1
v 0.1 1.9 -0.1
v 0.1 2 -0.1
v 0.2 0.2 -0.1
v 0.2 0.3 -0.1
v 0.2 0.5 -0.1
v 0.2 0.7 -0.1
v 0.2 1.4 -0.1
v 0.2 1.5 -0.1
v 0.3 0.3 -0.1
v 0.3 0.4 -0.1
v 0.3 0.7 -0.1
v 0.3 1.1 -0.1
v 0.4 0.4 -0.1
v 0.4 1.1 -0.1
v -0.2 1.5 -0.2
v -0.2 2 -0.2
v -0.1 1.4 -0.2
v -0.1 1.5 -0.2
v -0.1 1.9 -0.2
v -0.1 2 -0.2
v 0.1 1.4 -0.2
v 0.1 1.5 -0.2
v 0.1 1.9 -0.2
v 0.1 2 -0.2
v 0.2 1.5 -0.2
v 0.2 2 -0.2
v -0.1 0 0.0999999
v 0.1 0 0.0999999
v -0.1 0 -0.1
v 0.1 0 -0.1
v -0.2 0.2 0.0999999
v -0.1 0.2 0.0999999
v 0.1 0.2 0.0999999
v 0.2 0.2 0.0999999
v -0.2 0.2 -0.1
v -0.1 0.2 -0.1
v 0.1 0.2 -0.1
v 0.2 0.2 -0.1
v -0.3 0.3 0.0999999
v -0.2 0.3 0.0999999
v 0.2 0.3 0.0999999
v 0.3 0.3 0.0999999
v -0.3 0.3 -0.1
v -0.2 0.3 -0.1
v 0.2 0.3 -0.1
v 0.3 0.3 -0.1
v -0.4 0.4 0.0999999
v -0.3 0.4 0.0999999
v 0.3 0.4 0.0999999
v 0.4 0.4 0.0999999
v -0.4 0.4 -0.1
v -0.3 0.4 -0.1
v 0.3 0.4 -0.1
v 0.4 0.4 -0.1
v -0.1 1.4 0.2
v 0.1 1.4 0.2
v -0.2 1.4 0.0999999
v -0.1 1.4 0.0999999
v 0.1 1.4 0.0999999
v 0.2 1.4 0.0999999
v -0.2 1.4 -0.1
v -0.1 1.4 -0.1
v 0.1 1.4 -0.1
v 0.2 1.4 -0.1
v -0.1 1.4 -0.2
v 0.1 1.4 -0.2
v -0.2 1.5 0.2
v -0.1 1.5 0.2
v 0.1 1.5 0.2
v 0.2 1.5 0.2
v -0.2 1.5 0.0999999
v -0.1 1.5 0.0999999
v 0.1 1.5 0.0999999
v 0.2 1.5 0.0999999
v -0.2 1.5 -0.1
v -0.1 1.5 -0.1
v 0.1 1.5 -0.1
v 0.2 1.5 -0.1
v -0.2 1.5 -0.2
v -0.1 1.5 -0.2
v 0.1 1.5 -0.2
v 0.2 1.5 -0.2
v -0.2 0.5 0.0999999
v -0.1 0.5 0.0999999
v 0.1 0.5 0.0999999
v 0.2 0.5 0.0999999
v -0.2 0.5 -0.1
v -0.1 0.5 -0.1
v 0.1 0.5 -0.1
v 0.2 0.5 -0.1
v -0.3 0.7 0.0999999
v -0.2 0.7 0.0999999
v 0.2 0.7 0.0999999
v 0.3 0.7 0.0999999
v -0.3 0.7 -0.1
v -0.2 0.7 -0.1
v 0.2 0.7 -0.1
v 0.3 0.7 -0.1
v -0.4 1.1 0.0999999
v -0.3 1.1 0.0999999
v 0.3 1.1 0.0999999
v 0.4 1.1 0.0999999
v -0.4 1.1 -0.1
v -0.3 1.1 -0.1
v 0.3 1.1 -0.1
v 0.4 1.1 -0.1
v -0.1 1.9 0.2
v 0.1 1.9 0.2
v -0.2 1.9 0.0999999
v -0.1 1.9 0.0999999
v 0 1.9 0.0999999
v 0.1 1.9 0.0999999
v 0.2 1.9 0.0999999
v -0.1 1.9 -5.96046e-08
v 0 1.9 -5.96046e-08
v 0.1 1.9 -5.96046e-08
v -0.2 1.9 -0.1
v -0.1 1.9 -0.1
v 0 1.9 -0.1
v 0.1 1.9 -0.1
v 0.2 1.9 -0.1
v -0.1 1.9 -0.2
v 0.1 1.9 -0.2
v -0.2 2 0.2
v -0.1 2 0.2
v 0.1 2 0.2
v 0.2 2 0.2
v -0.2 2 0.0999999
v -0.1 2 0.0999999
v 0 2 0.0999999
v 0.1 2 0.0999999
v 0.2 2 0.0999999
v -0.1 2 -5.96046e-08
v 0 2 -5.96046e-08
v 0.1 2 -5.96046e-08
v -0.2 2 -0.1
v -0.1 2 -0.1
v 0 2 -0.1
v 0.1 2 -0.1
v 0.2 2 -0.1
v -0.2 2 -0.2
v -0.1 2 -0.2
v 0.1 2 -0.2
v 0.2 2 -0.2

# faces
f 3/3/1 2/3/1 1/3/1
f 4/3/1 2/3/1 3/3/1
f 7/3/1 6/3/1 5/3/1
f 8/3/1 6/3/1 7/3/1
f 11/3/1 10/3/1 9/3/1
f 12/3/1 10/3/1 11/3/1
f 16/4/1 14/4/1 13/4/1
f 17/4/1 14/4/1 16/4/1
f 19/4/1 17/4/1 16/4/1
f 19/4/1 18/4/1 17/4/1
f 19/4/1 16/4/1 15/4/1
f 20/4/1 18/4/1 19/4/1
f 21/4/1 19/4/1 15/4/1
f 22/4/1 19/4/1 21/4/1
f 23/4/1 18/4/1 20/4/1
f 24/4/1 18/4/1 23/4/1
f 27/3/1 26/3/1 25/3/1
f 28/3/1 26/3/1 27/3/1
f 32/3/1 30/3/1 29/3/1
f 33/3/1 30/3/1 32/3/1
f 35/4/1 32/4/1 31/4/1
f 36/4/1 32/4/1 35/4/1
f 37/4/1 34/4/1 33/4/1
f 38/4/1 34/4/1 37/4/1
f 41/1/1 40/1/1 39/1/1
f 42/1/1 40/1/1 41/1/1
f 45/1/1 44/1/1 43/1/1
f 46/1/1 44/1/1 45/1/1
f 51/4/1 48/4/1 47/4/1
f 52/4/1 48/4/1 51/4/1
f 53/4/1 50/4/1 49/4/1
f 54/4/1 50/4/1 53/4/1
f 57/3/1 56/3/1 55/3/1
f 58/3/1 56/3/1 57/3/1
f 61/3/1 60/3/1 59/3/1
f 62/3/1 60/3/1 61/3/1
f 63/3/2 64/3/2 65/3/2
f 65/3/2 64/3/2 66/3/2
f 67/3/2 68/3/2 69/3/2
f 69/3/2 68/3/2 70/3/2
f 71/4/2 72/4/2 75/4/2
f 75/4/2 72/4/2 76/4/2
f 73/4/2 74/4/2 77/4/2
f 77/4/2 74/4/2 78/4/2
f 79/1/2 80/1/2 81/1/2
f 81/1/2 80/1/2 82/1/2
f 83/3/2 84/3/2 85/3/2
f 85/3/2 84/3/2 86/3/2
f 87/3/2 88/3/2 90/3/2
f 90/3/2 88/3/2 91/3/2
f 89/4/2 90/4/2 93/4/2
f 93/4/2 90/4/2 94/4/2
f 91/4/2 92/4/2 95/4/2
f 95/4/2 92/4/2 96/4/2
f 97/1/2 98/1/2 99/1/2
f 99/1/2 98/1/2 100/1/2
f 101/3/2 102/3/2 103/3/2
f 103/3/2 102/3/2 104/3/2
f 105/4/2 106/4/2 108/4/2
f 108/4/2 106/4/2 109/4/2
f 108/4/2 109/4/2 111/4/2
f 109/4/2 110/4/2 111/4/2
f 107/4/2 108/4/2 111/4/2
f 111/4/2 110/4/2 112/4/2
f 107/4/2 111/4/2 113/4/2
f 113/4/2 111/4/2 114/4/2
f 112/4/2 110/4/2 115/4/2
f 115/4/2 110/4/2 116/4/2
f 117/3/2 118/3/2 119/3/2
f 119/3/2 118/3/2 120/3/2
f 121/3/2 122/3/2 123/3/2
f 123/3/2 122/3/2 124/3/2
f 128/4/3 126/4/3 125/4/3
f 129/4/3 126/4/3 128/4/3
f 130/4/3 126/4/3 129/4/3
f 131/4/3 128/4/3 127/4/3
f 131/4/3 129/4/3 128/4/3
f 132/4/3 129/4/3 131/4/3
f 133/4/3 129/4/3 132/4/3
f 135/4/3 134/4/3 133/4/3
f 135/4/3 133/4/3 132/4/3
f 136/4/3 134/4/3 135/4/3
f 140/3/3 138/3/3 137/3/3
f 141/3/3 138/3/3 140/3/3
f 142/3/3 138/3/3 141/3/3
f 144/3/3 140/3/3 139/3/3
f 144/3/3 141/3/3 140/3/3
f 145/3/3 141/3/3 144/3/3
f 146/3/3 141/3/3 145/3/3
f 150/3/3 144/3/3 143/3/3
f 150/3/3 145/3/3 144/3/3
f 151/3/3 145/3/3 150/3/3
f 152/4/3 148/4/3 147/4/3
f 153/4/3 148/4/3 152/4/3
f 156/1/3 155/1/3 154/1/3
f 157/1/3 155/1/3 156/1/3
f 158/3/3 151/3/3 150/3/3
f 158/3/3 150/3/3 149/3/3
f 158/3/3 152/3/3 151/3/3
f 159/3/3 152/3/3 158/3/3
f 160/3/3 152/3/3 159/3/3
f 161/3/3 152/3/3 160/3/3
f 163/3/3 160/3/3 159/3/3
f 164/3/3 160/3/3 163/3/3
f 165/3/3 160/3/3 164/3/3
f 167/4/3 162/4/3 161/4/3
f 168/4/3 162/4/3 167/4/3
f 169/3/3 166/3/3 165/3/3
f 169/3/3 165/3/3 164/3/3
f 170/3/3 166/3/3 169/3/3
f 171/3/3 166/3/3 170/3/3
f 173/3/3 172/3/3 171/3/3
f 173/3/3 171/3/3 170/3/3
f 174/3/3 172/3/3 173/3/3
f 177/1/3 176/1/3 175/1/3
f 178/1/3 176/1/3 177/1/3
f 181/4/3 180/4/3 179/4/3
f 182/4/3 180/4/3 181/4/3
f 185/4/3 184/4/3 183/4/3
f 186/4/3 184/4/3 185/4/3
f 187/4/4 188/4/4 189/4/4
f 189/4/4 188/4/4 190/4/4
f 191/4/4 192/4/4 193/4/4
f 193/4/4 192/4/4 194/4/4
f 195/1/4 196/1/4 197/1/4
f 197/1/4 196/1/4 198/1/4
f 199/3/4 200/3/4 202/3/4
f 202/3/4 200/3/4 203/3/4
f 203/3/4 200/3/4 204/3/4
f 201/3/4 202/3/4 206/3/4
f 202/3/4 203/3/4 206/3/4
f 206/3/4 203/3/4 207/3/4
f 207/3/4 203/3/4 208/3/4
f 205/3/4 206/3/4 212/3/4
f 206/3/4 207/3/4 212/3/4
f 212/3/4 207/3/4 213/3/4
f 209/4/4 210/4/4 214/4/4
f 214/4/4 210/4/4 215/4/4
f 212/3/4 213/3/4 218/3/4
f 211/3/4 212/3/4 218/3/4
f 213/3/4 214/3/4 218/3/4
f 218/3/4 214/3/4 219/3/4
f 219/3/4 214/3/4 220/3/4
f 220/3/4 214/3/4 221/3/4
f 216/1/4 217/1/4 223/1/4
f 223/1/4 217/1/4 224/1/4
f 219/3/4 220/3/4 225/3/4
f 225/3/4 220/3/4 226/3/4
f 226/3/4 220/3/4 227/3/4
f 221/4/4 222/4/4 229/4/4
f 229/4/4 222/4/4 230/4/4
f 227/3/4 228/3/4 231/3/4
f 226/3/4 227/3/4 231/3/4
f 231/3/4 228/3/4 232/3/4
f 232/3/4 228/3/4 233/3/4
f 233/3/4 234/3/4 235/3/4
f 232/3/4 233/3/4 235/3/4
f 235/3/4 234/3/4 236/3/4
f 237/4/4 238/4/4 240/4/4
f 240/4/4 238/4/4 241/4/4
f 241/4/4 238/4/4 242/4/4
f 239/4/4 240/4/4 243/4/4
f 240/4/4 241/4/4 243/4/4
f 243/4/4 241/4/4 244/4/4
f 244/4/4 241/4/4 245/4/4
f 245/4/4 246/4/4 247/4/4
f 244/4/4 245/4/4 247/4/4
f 247/4/4 246/4/4 248/4/4
f 251/3/5 250/3/5 249/3/5
f 252/3/5 250/3/5 251/3/5
f 257/3/5 254/3/5 253/3/5
f 258/3/5 254/3/5 257/3/5
f 259/3/5 256/3/5 255/3/5
f 260/3/5 256/3/5 259/3/5
f 265/3/5 262/3/5 261/3/5
f 266/3/5 262/3/5 265/3/5
f 267/3/5 264/3/5 263/3/5
f 268/3/5 264/3/5 267/3/5
f 273/3/5 270/3/5 269/3/5
f 274/3/5 270/3/5 273/3/5
f 275/3/5 272/3/5 271/3/5
f 276/3/5 272/3/5 275/3/5
f 280/4/5 278/4/5 277/4/5
f 281/4/5 278/4/5 280/4/5
f 283/4/5 280/4/5 279/4/5
f 284/4/5 280/4/5 283/4/5
f 285/4/5 282/4/5 281/4/5
f 286/4/5 282/4/5 285/4/5
f 287/4/5 285/4/5 284/4/5
f 288/4/5 285/4/5 287/4/5
f 293/4/5 290/4/5 289/4/5
f 294/4/5 290/4/5 293/4/5
f 295/4/5 292/4/5 291/4/5
f 296/4/5 292/4/5 295/4/5
f 301/4/5 298/4/5 297/4/5
f 302/4/5 298/4/5 301/4/5
f 303/4/5 300/4/5 299/4/5
f 304/4/5 300/4/5 303/4/5
f 305/3/6 306/3/6 309/3/6
f 309/3/6 306/3/6 310/3/6
f 307/3/6 308/3/6 311/3/6
f 311/3/6 308/3/6 312/3/6
f 313/3/6 314/3/6 317/3/6
f 317/3/6 314/3/6 318/3/6
f 315/3/6 316/3/6 319/3/6
f 319/3/6 316/3/6 320/3/6
f 321/3/6 322/3/6 325/3/6
f 325/3/6 322/3/6 326/3/6
f 323/3/6 324/3/6 327/3/6
f 327/3/6 324/3/6 328/3/6
f 329/4/6 330/4/6 332/4/6
f 332/4/6 330/4/6 333/4/6
f 333/4/6 330/4/6 334/4/6
f 331/4/6 332/4/6 336/4/6
f 333/1/6 334/1/6 337/1/6
f 334/4/6 335/4/6 338/4/6
f 337/1/6 334/1/6 338/1/6
f 331/4/6 336/4/6 339/4/6
f 336/1/6 337/1/6 340/1/6
f 339/4/6 336/4/6 340/4/6
f 340/1/6 337/1/6 341/1/6
f 338/4/6 335/4/6 342/4/6
f 342/4/6 335/4/6 343/4/6
f 340/4/6 341/4/6 344/4/6
f 341/4/6 342/4/6 344/4/6
f 344/4/6 342/4/6 345/4/6
f 346/4/6 347/4/6 350/4/6
f 350/4/6 347/4/6 351/4/6
f 348/4/6 349/4/6 353/4/6
f 353/4/6 349/4/6 354/4/6
f 351/1/6 352/1/6 355/1/6
f 355/1/6 352/1/6 356/1/6
f 356/1/6 357/1/6 360/1/6
f 360/1/6 357/1/6 361/1/6
f 358/4/6 359/4/6 363/4/6
f 363/4/6 359/4/6 364/4/6
f 361/4/6 362/4/6 365/4/6
f 365/4/6 362/4/6 366/4/6
