# Blender v3.6.0 OBJ File: 'wall.blend'
# www.blender.org
mtllib wall.mtl
o 立方体
v -1.000000 0.000000 1.000000
v -1.000000 2.000000 1.000000
v -1.000000 0.000000 -1.000000
v -1.000000 2.000000 -1.000000
v 1.000000 0.000000 1.000000
v 1.000000 2.000000 1.000000
v 1.000000 0.000000 -1.000000
v 1.000000 2.000000 -1.000000
vt 0.614551 0.000000
vt 0.366353 0.257082
vt 0.364577 0.007107
vt 0.616328 0.249975
vt 0.368130 0.507057
vt 0.618105 0.499950
vt 0.369907 0.757031
vt 0.619882 0.749924
vt 0.371684 1.007006
vt 0.119932 0.764138
vt 0.118155 0.514164
vt 0.868080 0.492842
vt 0.621658 0.999899
vt 0.869856 0.742817
vn -1.0000 0.0000 0.0000
vn 0.0000 0.0000 -1.0000
vn 1.0000 0.0000 0.0000
vn 0.0000 0.0000 1.0000
vn 0.0000 -1.0000 0.0000
vn 0.0000 1.0000 0.0000
usemtl マテリアル.002
s off
f 2/1/1 3/2/1 1/3/1
f 4/4/2 7/5/2 3/2/2
f 8/6/3 5/7/3 7/5/3
f 6/8/4 1/9/4 5/7/4
f 7/5/5 1/10/5 3/11/5
f 4/12/6 6/8/6 8/6/6
f 2/1/1 4/4/1 3/2/1
f 4/4/2 8/6/2 7/5/2
f 8/6/3 6/8/3 5/7/3
f 6/8/4 2/13/4 1/9/4
f 7/5/5 5/7/5 1/10/5
f 4/12/6 2/14/6 6/8/6
