# MagicaVoxel @ Ephtracy

# group
o 

# material
mtllib waterwand.mtl
usemtl palette

# normals
vn -1 0 0
vn 1 0 0
vn 0 0 1
vn 0 0 -1
vn 0 -1 0
vn 0 1 0

# texcoords
vt 0.0214844 0.5
vt 0.369141 0.5
vt 0.564453 0.5
vt 0.958984 0.5

# verts
v -0.0999999 0 0.1
v -0.0999999 0 -2.98023e-08
v -0.0999999 0.5 0.3
v -0.0999999 0.5 0.2
v -0.0999999 0.5 -0.1
v -0.0999999 0.5 -0.2
v -0.0999999 0.6 0.3
v -0.0999999 0.6 0.2
v -0.0999999 0.6 0.1
v -0.0999999 0.6 -2.98023e-08
v -0.0999999 0.6 -0.1
v -0.0999999 0.6 -0.2
v -0.0999999 0.7 0.2
v -0.0999999 0.7 0.1
v -0.0999999 0.7 -2.98023e-08
v -0.0999999 0.7 -0.1
v -0.0999999 0.8 0.2
v -0.0999999 0.8 0.1
v -0.0999999 0.8 -2.98023e-08
v -0.0999999 0.8 -0.1
v -0.0999999 0.9 0.3
v -0.0999999 0.9 0.2
v -0.0999999 0.9 0.1
v -0.0999999 0.9 -2.98023e-08
v -0.0999999 0.9 -0.1
v -0.0999999 0.9 -0.2
v -0.0999999 1 0.3
v -0.0999999 1 0.2
v -0.0999999 1 -0.1
v -0.0999999 1 -0.2
v 7.45058e-08 0 0.1
v 7.45058e-08 0 -2.98023e-08
v 7.45058e-08 0.5 0.3
v 7.45058e-08 0.5 0.2
v 7.45058e-08 0.5 -0.1
v 7.45058e-08 0.5 -0.2
v 7.45058e-08 0.6 0.3
v 7.45058e-08 0.6 0.2
v 7.45058e-08 0.6 0.1
v 7.45058e-08 0.6 -2.98023e-08
v 7.45058e-08 0.6 -0.1
v 7.45058e-08 0.6 -0.2
v 7.45058e-08 0.7 0.2
v 7.45058e-08 0.7 0.1
v 7.45058e-08 0.7 -2.98023e-08
v 7.45058e-08 0.7 -0.1
v 7.45058e-08 0.8 0.2
v 7.45058e-08 0.8 0.1
v 7.45058e-08 0.8 -2.98023e-08
v 7.45058e-08 0.8 -0.1
v 7.45058e-08 0.9 0.3
v 7.45058e-08 0.9 0.2
v 7.45058e-08 0.9 0.1
v 7.45058e-08 0.9 -2.98023e-08
v 7.45058e-08 0.9 -0.1
v 7.45058e-08 0.9 -0.2
v 7.45058e-08 1 0.3
v 7.45058e-08 1 0.2
v 7.45058e-08 1 -0.1
v 7.45058e-08 1 -0.2
v -0.0999999 0.5 0.3
v -0.0999999 0.6 0.3
v -0.0999999 0.9 0.3
v -0.0999999 1 0.3
v 7.45058e-08 0.5 0.3
v 7.45058e-08 0.6 0.3
v 7.45058e-08 0.9 0.3
v 7.45058e-08 1 0.3
v -0.0999999 0.6 0.2
v -0.0999999 0.7 0.2
v -0.0999999 0.8 0.2
v -0.0999999 0.9 0.2
v 7.45058e-08 0.6 0.2
v 7.45058e-08 0.7 0.2
v 7.45058e-08 0.8 0.2
v 7.45058e-08 0.9 0.2
v -0.0999999 0 0.1
v -0.0999999 0.6 0.1
v -0.0999999 0.7 0.1
v -0.0999999 0.8 0.1
v 7.45058e-08 0 0.1
v 7.45058e-08 0.6 0.1
v 7.45058e-08 0.7 0.1
v 7.45058e-08 0.8 0.1
v -0.0999999 0.5 -0.1
v -0.0999999 0.6 -0.1
v -0.0999999 0.9 -0.1
v -0.0999999 1 -0.1
v 7.45058e-08 0.5 -0.1
v 7.45058e-08 0.6 -0.1
v 7.45058e-08 0.9 -0.1
v 7.45058e-08 1 -0.1
v -0.0999999 0.5 0.2
v -0.0999999 0.6 0.2
v -0.0999999 0.9 0.2
v -0.0999999 1 0.2
v 7.45058e-08 0.5 0.2
v 7.45058e-08 0.6 0.2
v 7.45058e-08 0.9 0.2
v 7.45058e-08 1 0.2
v -0.0999999 0 -2.98023e-08
v -0.0999999 0.6 -2.98023e-08
v -0.0999999 0.7 -2.98023e-08
v -0.0999999 0.8 -2.98023e-08
v 7.45058e-08 0 -2.98023e-08
v 7.45058e-08 0.6 -2.98023e-08
v 7.45058e-08 0.7 -2.98023e-08
v 7.45058e-08 0.8 -2.98023e-08
v -0.0999999 0.6 -0.1
v -0.0999999 0.7 -0.1
v -0.0999999 0.8 -0.1
v -0.0999999 0.9 -0.1
v 7.45058e-08 0.6 -0.1
v 7.45058e-08 0.7 -0.1
v 7.45058e-08 0.8 -0.1
v 7.45058e-08 0.9 -0.1
v -0.0999999 0.5 -0.2
v -0.0999999 0.6 -0.2
v -0.0999999 0.9 -0.2
v -0.0999999 1 -0.2
v 7.45058e-08 0.5 -0.2
v 7.45058e-08 0.6 -0.2
v 7.45058e-08 0.9 -0.2
v 7.45058e-08 1 -0.2
v -0.0999999 0 0.1
v 7.45058e-08 0 0.1
v -0.0999999 0 -2.98023e-08
v 7.45058e-08 0 -2.98023e-08
v -0.0999999 0.5 0.3
v 7.45058e-08 0.5 0.3
v -0.0999999 0.5 0.2
v 7.45058e-08 0.5 0.2
v -0.0999999 0.5 -0.1
v 7.45058e-08 0.5 -0.1
v -0.0999999 0.5 -0.2
v 7.45058e-08 0.5 -0.2
v -0.0999999 0.6 0.2
v 7.45058e-08 0.6 0.2
v -0.0999999 0.6 0.1
v 7.45058e-08 0.6 0.1
v -0.0999999 0.6 -2.98023e-08
v 7.45058e-08 0.6 -2.98023e-08
v -0.0999999 0.6 -0.1
v 7.45058e-08 0.6 -0.1
v -0.0999999 0.8 0.2
v 7.45058e-08 0.8 0.2
v -0.0999999 0.8 0.1
v 7.45058e-08 0.8 0.1
v -0.0999999 0.8 -2.98023e-08
v 7.45058e-08 0.8 -2.98023e-08
v -0.0999999 0.8 -0.1
v 7.45058e-08 0.8 -0.1
v -0.0999999 0.9 0.3
v 7.45058e-08 0.9 0.3
v -0.0999999 0.9 0.2
v 7.45058e-08 0.9 0.2
v -0.0999999 0.9 -0.1
v 7.45058e-08 0.9 -0.1
v -0.0999999 0.9 -0.2
v 7.45058e-08 0.9 -0.2
v -0.0999999 0.6 0.3
v 7.45058e-08 0.6 0.3
v -0.0999999 0.6 0.2
v 7.45058e-08 0.6 0.2
v -0.0999999 0.6 -0.1
v 7.45058e-08 0.6 -0.1
v -0.0999999 0.6 -0.2
v 7.45058e-08 0.6 -0.2
v -0.0999999 0.7 0.2
v 7.45058e-08 0.7 0.2
v -0.0999999 0.7 0.1
v 7.45058e-08 0.7 0.1
v -0.0999999 0.7 -2.98023e-08
v 7.45058e-08 0.7 -2.98023e-08
v -0.0999999 0.7 -0.1
v 7.45058e-08 0.7 -0.1
v -0.0999999 0.9 0.2
v 7.45058e-08 0.9 0.2
v -0.0999999 0.9 0.1
v 7.45058e-08 0.9 0.1
v -0.0999999 0.9 -2.98023e-08
v 7.45058e-08 0.9 -2.98023e-08
v -0.0999999 0.9 -0.1
v 7.45058e-08 0.9 -0.1
v -0.0999999 1 0.3
v 7.45058e-08 1 0.3
v -0.0999999 1 0.2
v 7.45058e-08 1 0.2
v -0.0999999 1 -0.1
v 7.45058e-08 1 -0.1
v -0.0999999 1 -0.2
v 7.45058e-08 1 -0.2

# faces
f 7/1/1 4/1/1 3/1/1
f 8/1/1 4/1/1 7/1/1
f 9/2/1 2/2/1 1/2/1
f 10/2/1 2/2/1 9/2/1
f 11/1/1 6/1/1 5/1/1
f 12/1/1 6/1/1 11/1/1
f 13/3/1 9/3/1 8/3/1
f 14/4/1 10/4/1 9/4/1
f 14/3/1 9/3/1 13/3/1
f 15/3/1 11/3/1 10/3/1
f 15/4/1 10/4/1 14/4/1
f 16/3/1 11/3/1 15/3/1
f 18/3/1 15/3/1 14/3/1
f 19/3/1 15/3/1 18/3/1
f 22/3/1 18/3/1 17/3/1
f 23/4/1 19/4/1 18/4/1
f 23/3/1 18/3/1 22/3/1
f 24/3/1 20/3/1 19/3/1
f 24/4/1 19/4/1 23/4/1
f 25/3/1 20/3/1 24/3/1
f 27/1/1 22/1/1 21/1/1
f 28/1/1 22/1/1 27/1/1
f 29/1/1 26/1/1 25/1/1
f 30/1/1 26/1/1 29/1/1
f 33/1/2 34/1/2 37/1/2
f 37/1/2 34/1/2 38/1/2
f 31/2/2 32/2/2 39/2/2
f 39/2/2 32/2/2 40/2/2
f 35/1/2 36/1/2 41/1/2
f 41/1/2 36/1/2 42/1/2
f 38/3/2 39/3/2 43/3/2
f 39/4/2 40/4/2 44/4/2
f 43/3/2 39/3/2 44/3/2
f 40/3/2 41/3/2 45/3/2
f 44/4/2 40/4/2 45/4/2
f 45/3/2 41/3/2 46/3/2
f 44/3/2 45/3/2 48/3/2
f 48/3/2 45/3/2 49/3/2
f 47/3/2 48/3/2 52/3/2
f 48/4/2 49/4/2 53/4/2
f 52/3/2 48/3/2 53/3/2
f 49/3/2 50/3/2 54/3/2
f 53/4/2 49/4/2 54/4/2
f 54/3/2 50/3/2 55/3/2
f 51/1/2 52/1/2 57/1/2
f 57/1/2 52/1/2 58/1/2
f 55/1/2 56/1/2 59/1/2
f 59/1/2 56/1/2 60/1/2
f 65/1/3 62/1/3 61/1/3
f 66/1/3 62/1/3 65/1/3
f 67/1/3 64/1/3 63/1/3
f 68/1/3 64/1/3 67/1/3
f 73/3/3 70/3/3 69/3/3
f 74/3/3 70/3/3 73/3/3
f 75/3/3 72/3/3 71/3/3
f 76/3/3 72/3/3 75/3/3
f 81/2/3 78/2/3 77/2/3
f 82/2/3 78/2/3 81/2/3
f 83/3/3 80/3/3 79/3/3
f 84/3/3 80/3/3 83/3/3
f 89/1/3 86/1/3 85/1/3
f 90/1/3 86/1/3 89/1/3
f 91/1/3 88/1/3 87/1/3
f 92/1/3 88/1/3 91/1/3
f 93/1/4 94/1/4 97/1/4
f 97/1/4 94/1/4 98/1/4
f 95/1/4 96/1/4 99/1/4
f 99/1/4 96/1/4 100/1/4
f 101/2/4 102/2/4 105/2/4
f 105/2/4 102/2/4 106/2/4
f 103/3/4 104/3/4 107/3/4
f 107/3/4 104/3/4 108/3/4
f 109/3/4 110/3/4 113/3/4
f 113/3/4 110/3/4 114/3/4
f 111/3/4 112/3/4 115/3/4
f 115/3/4 112/3/4 116/3/4
f 117/1/4 118/1/4 121/1/4
f 121/1/4 118/1/4 122/1/4
f 119/1/4 120/1/4 123/1/4
f 123/1/4 120/1/4 124/1/4
f 127/2/5 126/2/5 125/2/5
f 128/2/5 126/2/5 127/2/5
f 131/1/5 130/1/5 129/1/5
f 132/1/5 130/1/5 131/1/5
f 135/1/5 134/1/5 133/1/5
f 136/1/5 134/1/5 135/1/5
f 139/3/5 138/3/5 137/3/5
f 140/3/5 138/3/5 139/3/5
f 143/3/5 142/3/5 141/3/5
f 144/3/5 142/3/5 143/3/5
f 147/3/5 146/3/5 145/3/5
f 148/3/5 146/3/5 147/3/5
f 151/3/5 150/3/5 149/3/5
f 152/3/5 150/3/5 151/3/5
f 155/1/5 154/1/5 153/1/5
f 156/1/5 154/1/5 155/1/5
f 159/1/5 158/1/5 157/1/5
f 160/1/5 158/1/5 159/1/5
f 161/1/6 162/1/6 163/1/6
f 163/1/6 162/1/6 164/1/6
f 165/1/6 166/1/6 167/1/6
f 167/1/6 166/1/6 168/1/6
f 169/3/6 170/3/6 171/3/6
f 171/3/6 170/3/6 172/3/6
f 173/3/6 174/3/6 175/3/6
f 175/3/6 174/3/6 176/3/6
f 177/3/6 178/3/6 179/3/6
f 179/3/6 178/3/6 180/3/6
f 179/4/6 180/4/6 181/4/6
f 181/4/6 180/4/6 182/4/6
f 181/3/6 182/3/6 183/3/6
f 183/3/6 182/3/6 184/3/6
f 185/1/6 186/1/6 187/1/6
f 187/1/6 186/1/6 188/1/6
f 189/1/6 190/1/6 191/1/6
f 191/1/6 190/1/6 192/1/6
